<svg xmlns="http://www.w3.org/2000/svg" viewBox="0 0 350.75 380.11"><defs><style>.cls-1{fill:#3c3c3c;}</style></defs><g id="Calque_2" data-name="Calque 2"><g id="_6" data-name="6"><path class="cls-1" d="M323.39,331.64c.65-2.73,1.29-5.47,1.93-8.19.35-1.47-.25-2.38-1.8-2.75l-6.25-1.43a5.88,5.88,0,0,1-2.14.57c-.34,0-.68.08-1,.13a1.66,1.66,0,0,1-.66-.07,3.35,3.35,0,0,1-2.16-1.59,2.09,2.09,0,0,1-.19-.44q-10.11-2.25-20.26-4.36a2.08,2.08,0,0,0-2.79,1.73q-1.26,6.12-2.51,12.25l.16,0a1.58,1.58,0,0,1,.81.46,9.83,9.83,0,0,0,1,1.05c.24.2.23.24.09.69-.07.24-.15.49-.17.53-.1.54-.16.87-.22,1.21a1.12,1.12,0,0,1-.44.66c-.31.24-.64.47-1,.7a1.23,1.23,0,0,1-1,.07l-.38-.16-6.06,29.61A2.08,2.08,0,0,0,280.2,365q15.71,3.24,31.33,6.9a2,2,0,0,0,2.75-1.67c.65-2.73,1.29-5.46,1.94-8.19a2,2,0,0,0-1.74-2.73q-9.11-2.13-18.23-4.12a2.08,2.08,0,0,1-1.78-2.69l.51-2.35a2.05,2.05,0,0,1,2.75-1.71q5.86,1.28,11.74,2.62a2.06,2.06,0,0,0,2.78-1.68q.93-4.09,1.88-8.2a2,2,0,0,0-1.78-2.72q-5.94-1.35-11.87-2.65a2.09,2.09,0,0,1-1.82-2.7l.51-2.35a2.06,2.06,0,0,1,2.78-1.7q9.33,2,18.62,4.21A2.07,2.07,0,0,0,323.39,331.64Zm-28.64,28s-.14,0-.22,0-.08-.19,0-.22S294.79,359.39,294.75,359.63Zm-8.83-20c-.05-.06,0-.14-.06-.22s.07-.16.14-.22a1.24,1.24,0,0,1,1.89.1c.13.16.17.31.06.44a1.11,1.11,0,0,1-1,.49A1.26,1.26,0,0,1,285.92,339.59Zm4.82,19.91c-.24,1-1.62,1.56-2.78,1.33a6.21,6.21,0,0,1-1.56-.51c-1.59-.8-1.08-2-.33-2.62a5.86,5.86,0,0,1,1.33-.74.94.94,0,0,1,.64-.07c.54.12,1.1.23,1.63.38a1.55,1.55,0,0,1,.53.31,1.7,1.7,0,0,1,.61,1.42A4,4,0,0,1,290.74,359.5ZM300,344.8a.42.42,0,0,1,.54-.13.64.64,0,0,1,.39.34c.07.18,0,.32-.25.39l-.28.07c-.3,0-.61-.26-.52-.47A1.06,1.06,0,0,1,300,344.8Zm-2.5-1.65A.58.58,0,0,1,297,343c-.14-.14-.21-.29-.11-.4a.57.57,0,0,1,.57-.12.43.43,0,0,1,.35.33A.37.37,0,0,1,297.53,343.15Zm1.2-18.13a.62.62,0,0,1-.49-.29c-.13-.21.19-.5.5-.48a.66.66,0,0,1,.5.29C299.37,324.75,299.07,325,298.73,325Zm5.41.28a.77.77,0,0,1-.42-.88c.07-.36.54-.56.95-.56a3.64,3.64,0,0,1,.66.11.9.9,0,0,1,.67.52,1,1,0,0,1,0,.24A1.5,1.5,0,0,1,304.14,325.3ZM311.4,324c-.2.05-.41.08-.62.12a1.65,1.65,0,0,1-.32,0l-1.52-.51a2.69,2.69,0,0,1-.28-.44c-.07-.18.07-.3.29-.39a1,1,0,0,1,.62-.11,9.18,9.18,0,0,1,1.84.58.53.53,0,0,1,.31.41C311.76,323.83,311.65,324,311.4,324Zm10.39,4.37a.67.67,0,0,1-.1.23,1.15,1.15,0,0,0-.09,1.22c.13.28,0,.49-.23.68a1.55,1.55,0,0,1-1.53.2,1.92,1.92,0,0,1-.55-.29,3.58,3.58,0,0,0-1.62-.91,4.73,4.73,0,0,1-.9-.37,1.15,1.15,0,0,1-.63-1.35,3.08,3.08,0,0,1,1-1.26,2.5,2.5,0,0,1,1.5-.47l.8,0,.55.08a2.13,2.13,0,0,1,1.12.56,4.72,4.72,0,0,1,.52.66A1.08,1.08,0,0,1,321.79,328.39Z"/><path class="cls-1" d="M140.11,318.25c-.25-2.79-.49-5.59-.73-8.38q-.19-2.25-2.58-2l-6.38.59a5.67,5.67,0,0,1-1.86,1.22c-.31.13-.61.29-.92.44a1.58,1.58,0,0,1-.65.14,3.37,3.37,0,0,1-2.55-.83,2.17,2.17,0,0,1-.32-.36q-10.31,1-20.6,2.2a2.08,2.08,0,0,0-2.11,2.52q.72,6.21,1.45,12.42H103a1.53,1.53,0,0,1,.92.18,8.17,8.17,0,0,0,1.28.68c.28.12.29.16.3.63,0,.26,0,.51,0,.56.08.54.12.88.17,1.21a1.18,1.18,0,0,1-.21.77c-.22.33-.46.64-.7,1a1.19,1.19,0,0,1-.88.38l-.41,0,3.51,30a2.08,2.08,0,0,0,2.54,2q15.93-1.83,31.92-3.26a2,2,0,0,0,2.09-2.44c-.25-2.8-.49-5.59-.73-8.39a2,2,0,0,0-2.51-2q-9.3.82-18.6,1.79a2.08,2.08,0,0,1-2.53-2c-.09-.79-.17-1.59-.26-2.39a2.05,2.05,0,0,1,2.08-2.48q6-.63,12-1.19a2.06,2.06,0,0,0,2.12-2.46l-.78-8.38a2,2,0,0,0-2.55-2q-6.06.59-12.1,1.2a2.1,2.1,0,0,1-2.58-2c-.08-.8-.16-1.59-.25-2.39a2.07,2.07,0,0,1,2.12-2.49q9.48-1,19-1.83A2.08,2.08,0,0,0,140.11,318.25Zm-18.44,35.56s-.12.07-.19.1-.14-.15-.11-.19C121.51,353.53,121.64,353.57,121.67,353.81ZM107,337.55a.67.67,0,0,1-.12-.2.76.76,0,0,1,.06-.25,1.24,1.24,0,0,1,1.82-.5c.18.11.26.24.2.4a1.1,1.1,0,0,1-.82.79A1.29,1.29,0,0,1,107,337.55Zm10.81,17.39c.08,1-1,2-2.22,2.13a5.63,5.63,0,0,1-1.64,0c-1.76-.25-1.65-1.52-1.14-2.37a5.73,5.73,0,0,1,1-1.13,1,1,0,0,1,.59-.26c.55-.06,1.11-.13,1.67-.15a1.32,1.32,0,0,1,.6.13,1.68,1.68,0,0,1,1,1.16A3.86,3.86,0,0,1,117.82,354.94ZM122,338.07a.42.42,0,0,1,.47-.29.65.65,0,0,1,.48.2c.13.15.08.31-.11.45s-.17.1-.25.15c-.27.12-.66-.05-.64-.28A1.06,1.06,0,0,1,122,338.07Zm-2.89-.78a.57.57,0,0,1-.54,0c-.18-.09-.29-.21-.23-.35a.57.57,0,0,1,.5-.29.45.45,0,0,1,.44.2A.37.37,0,0,1,119.15,337.29Zm-4.54-17.6a.62.62,0,0,1-.56-.11c-.18-.16,0-.55.34-.62a.62.62,0,0,1,.55.11C115.14,319.23,114.94,319.6,114.61,319.69Zm5.23-1.43a.76.76,0,0,1-.67-.7c0-.36.33-.7.73-.83a3.65,3.65,0,0,1,.65-.1.89.89,0,0,1,.8.28.94.94,0,0,1,.12.22A1.49,1.49,0,0,1,119.84,318.26Zm6.5-3.48-.55.31a1.88,1.88,0,0,1-.33.05c-.53,0-1.07,0-1.6,0a1.82,1.82,0,0,1-.4-.32c-.12-.15,0-.31.15-.46a1.14,1.14,0,0,1,.55-.3,9,9,0,0,1,1.94,0,.58.58,0,0,1,.42.29C126.61,314.48,126.55,314.65,126.34,314.78Zm11.23.89a.76.76,0,0,1,0,.26,1.12,1.12,0,0,0,.29,1.18c.22.22.13.47,0,.72a1.59,1.59,0,0,1-1.39.67,1.89,1.89,0,0,1-.61-.11A3.64,3.64,0,0,0,134,318a4.49,4.49,0,0,1-1-.08,1.13,1.13,0,0,1-1-1.08,3.18,3.18,0,0,1,.58-1.52,2.52,2.52,0,0,1,1.29-.91c.21-.07.43-.12.77-.21a4.49,4.49,0,0,1,.54-.1,2.11,2.11,0,0,1,1.24.18,5.64,5.64,0,0,1,.7.46A1.11,1.11,0,0,1,137.57,315.67Z"/><path class="cls-1" d="M96.08,323.42q-.36-4.2-.73-8.38c-.13-1.5-1-2.18-2.57-2l-6.38.59a6,6,0,0,1-1.86,1.22c-.32.12-.62.28-.93.43a1.55,1.55,0,0,1-.65.15,3.35,3.35,0,0,1-2.55-.84,2,2,0,0,1-.31-.35q-10.32,1-20.61,2.2a2.08,2.08,0,0,0-2.11,2.51q.72,6.21,1.46,12.43l.16,0a1.57,1.57,0,0,1,.91.18,9.17,9.17,0,0,0,1.28.68c.29.12.29.17.3.63,0,.26,0,.52,0,.57.07.54.12.87.16,1.21a1,1,0,0,1-.21.76c-.22.33-.46.65-.69,1a1.25,1.25,0,0,1-.89.37l-.41,0q1.76,15,3.52,30a2.06,2.06,0,0,0,2.53,2q15.93-1.83,31.92-3.25a2,2,0,0,0,2.09-2.45c-.24-2.79-.49-5.59-.73-8.38a2,2,0,0,0-2.5-2.05q-9.32.84-18.6,1.8a2.09,2.09,0,0,1-2.54-2c-.09-.8-.17-1.6-.25-2.39A2.06,2.06,0,0,1,77,347.43q6-.62,12-1.18a2.07,2.07,0,0,0,2.11-2.47l-.78-8.38a2,2,0,0,0-2.55-2q-6,.57-12.1,1.2a2.1,2.1,0,0,1-2.57-2c-.09-.79-.17-1.59-.26-2.39a2.08,2.08,0,0,1,2.12-2.49q9.49-1,19-1.83A2.08,2.08,0,0,0,96.08,323.42ZM77.65,359s-.13.07-.2.11-.14-.16-.1-.2S77.61,358.73,77.65,359ZM63,342.71a.76.76,0,0,1-.12-.19,1.1,1.1,0,0,1,.06-.26,1.24,1.24,0,0,1,1.82-.5c.18.12.27.24.21.41a1.12,1.12,0,0,1-.83.78A1.27,1.27,0,0,1,63,342.71ZM73.8,360.1c.07,1-1,2-2.23,2.14a6,6,0,0,1-1.64,0c-1.76-.26-1.64-1.53-1.13-2.38a5.63,5.63,0,0,1,1-1.12,1,1,0,0,1,.59-.27c.56-.05,1.12-.12,1.67-.15a1.33,1.33,0,0,1,.6.14,1.68,1.68,0,0,1,1,1.15A4.21,4.21,0,0,1,73.8,360.1ZM78,343.24a.4.4,0,0,1,.46-.3.65.65,0,0,1,.48.21c.13.15.09.3-.11.45l-.25.15c-.27.11-.65-.06-.64-.29A.6.6,0,0,1,78,343.24Zm-2.9-.79a.57.57,0,0,1-.54,0c-.18-.09-.29-.21-.23-.35a.6.6,0,0,1,.51-.29.43.43,0,0,1,.43.21A.35.35,0,0,1,75.12,342.45Zm-4.53-17.6a.59.59,0,0,1-.56-.11c-.19-.16,0-.54.33-.62a.69.69,0,0,1,.56.12C71.11,324.4,70.91,324.77,70.59,324.85Zm5.23-1.43a.75.75,0,0,1-.68-.7c0-.35.34-.7.73-.82a3.64,3.64,0,0,1,.66-.11.81.81,0,0,1,.91.5A1.47,1.47,0,0,1,75.82,323.42Zm6.49-3.48-.55.31a2,2,0,0,1-.32.06H79.83a3.19,3.19,0,0,1-.4-.33c-.12-.15,0-.31.16-.46a1.06,1.06,0,0,1,.55-.3,8.91,8.91,0,0,1,1.93,0,.52.52,0,0,1,.42.29C82.58,319.65,82.52,319.81,82.31,319.94Zm11.24.9a.72.72,0,0,1,0,.25,1.14,1.14,0,0,0,.29,1.18c.22.23.13.47,0,.73a1.56,1.56,0,0,1-1.39.66,2,2,0,0,1-.61-.1A3.62,3.62,0,0,0,90,323.2a5.11,5.11,0,0,1-1-.07,1.16,1.16,0,0,1-1-1.08,3.06,3.06,0,0,1,.59-1.52,2.41,2.41,0,0,1,1.28-.92l.77-.21c.1,0,.32-.07.55-.1a2.08,2.08,0,0,1,1.23.18,4.28,4.28,0,0,1,.7.47A1.14,1.14,0,0,1,93.55,320.84Z"/><path class="cls-1" d="M53,358.44c-.72-4.61-3.61-7.95-7-8.85,2.6-3.85,2.59-8.86,2.19-11.39-1.93-12.15-8.49-16.95-23.24-14.37q-8.22,1.46-16.41,3c-1.55.37-2.19,1.26-1.91,2.73q4.53,23.58,9.07,47.15a2.07,2.07,0,0,0,2.67,1.78q9.24-1.75,18.52-3.37C51.05,372.7,54.5,367.66,53,358.44ZM44.45,337.9a1,1,0,0,1,.61-.18,1.06,1.06,0,0,1,1,.49.31.31,0,0,1,0,.25,1.57,1.57,0,0,1-.71.9,1.38,1.38,0,0,1-.94.22.75.75,0,0,1-.6-.51A1.36,1.36,0,0,1,44.45,337.9Zm-6.21,11.72a.58.58,0,0,1,.54-.19.49.49,0,0,1,.42.29c.08.22-.24.53-.54.53a.61.61,0,0,1-.51-.17C38,349.93,38.09,349.78,38.24,349.62Zm-16.16-1.05a.27.27,0,0,1-.1-.22c0-.07.08-.15.14-.23a.57.57,0,0,1,.55-.2,3.16,3.16,0,0,1,.57.17,4,4,0,0,1,1.35.92s-.05.15-.11.21a1.26,1.26,0,0,1-.26.14A3.31,3.31,0,0,1,22.08,348.57ZM36,372.41a.6.6,0,0,1-.5.32c-.39,0-.62-.09-.67-.32a2.53,2.53,0,0,1,0-.47.47.47,0,0,1,.47-.3C35.93,371.61,36.24,372,36,372.41ZM38.92,360c.59,3.49-1.16,4.16-4.8,4.8l-4.77.84a2,2,0,0,1-2.67-1.81c-.21-1.13-.41-2.26-.62-3.4a2.06,2.06,0,0,1,1.88-2.63l5-.87C36.56,356.29,38.32,356.52,38.92,360ZM25.5,350.21c0-.07,0-.17.09-.22a.54.54,0,0,1,.53,0c.21.07.31.18.23.33a.42.42,0,0,1-.21.18.43.43,0,0,1-.55-.05A.67.67,0,0,1,25.5,350.21Zm2.72,1.23c-.43-.07-.74-.28-.78-.66a2.11,2.11,0,0,0,0-.25.73.73,0,0,1,.8-.71,9.5,9.5,0,0,1,1.31,0,.78.78,0,0,1,.62.49c.07.15-.14.59-.35.72A2.4,2.4,0,0,1,28.22,351.44Zm2.59,5-.18.18a.87.87,0,0,1-.29.07c-.28,0-.3-.16,0-.31a.53.53,0,0,1,.28,0A.48.48,0,0,1,30.81,356.45Zm1.33-7.57a.3.3,0,0,1,.2-.41.77.77,0,0,1,.79.29.2.2,0,0,1,0,.21.43.43,0,0,1-.54.21A.62.62,0,0,1,32.14,348.88Zm2.8-8.47c.78,4.59-1,5.35-4.68,6l-4.15.74a2.06,2.06,0,0,1-2.7-1.8l-1-5.62a2.07,2.07,0,0,1,1.92-2.64l4.18-.74C32.21,335.69,34.16,335.82,34.94,340.41Zm12,24.26a3.15,3.15,0,0,1-.41,1.28,2.27,2.27,0,0,1-2.22,1,9,9,0,0,1-1.19-.32,1.25,1.25,0,0,1-.47-.29,2.07,2.07,0,0,1-.59-1.87,1.75,1.75,0,0,1,1.26-1.21,4.94,4.94,0,0,1,1.32-.18,1.88,1.88,0,0,1,.63.08,4.21,4.21,0,0,1,1.29.64A.91.91,0,0,1,46.9,364.67Z"/><path class="cls-1" d="M183.34,336c4-3,5.71-7.89,5.56-14.87-.26-12.31-6.13-17.95-20.3-17.42q-8.7.33-17.4.78a2.32,2.32,0,0,0-2.34,2.46l2.58,47.86a2.26,2.26,0,0,0,2.48,2.2l8.54-.41a2.27,2.27,0,0,0,2.26-2.43l-.51-11.86a2.28,2.28,0,0,1,2.29-2.43l3.09-.12a.8.8,0,0,1,.64.35q4.31,7.39,8.51,14.81a1.87,1.87,0,0,0,1.79,1c2.89-.09,5.79-.16,8.69-.23a2.67,2.67,0,0,0,2.44-4.11q-4.22-7.32-8.53-14.6A.78.78,0,0,1,183.34,336ZM181.85,325a.46.46,0,0,1,.58.05.71.71,0,0,1,.25.61h.07l.12.1a.11.11,0,0,1,.08,0c.06.05,0,.05-.08,0l-.19,0,.07-.08-.07.08v-.08a1.13,1.13,0,0,1-.8-.25C181.67,325.22,181.64,325.09,181.85,325Zm-29.59,1.16a1.7,1.7,0,0,1-.83.43,1.49,1.49,0,0,1-1.14-.28.44.44,0,0,1-.1-.67,2.48,2.48,0,0,1,.37-.43,1.26,1.26,0,0,1,1.19-.21,3.3,3.3,0,0,1,.49.28A.52.52,0,0,1,152.26,326.12Zm6.52,20.28c0,.07-.14.14-.21.2a.54.54,0,0,1-.59-.1c-.16-.16-.12-.32.13-.44a.59.59,0,0,1,.32,0C158.68,346.07,158.81,346.21,158.78,346.4Zm1.46-19.84a.63.63,0,0,1-.55.29,1.19,1.19,0,0,1-.83-.19.4.4,0,0,1,0-.65,1,1,0,0,1,1.35-.12A.49.49,0,0,1,160.24,326.56Zm8.56-18.7a1.49,1.49,0,0,1,1.21.05c.41.19.48.44.23.83a.92.92,0,0,1-.47.35c-.1,0-.21,0-.31,0a1.4,1.4,0,0,1-1-.45C168.2,308.42,168.39,308,168.8,307.86Zm-3.23,27.78a1.09,1.09,0,0,1-.32,0c-.22-.1-.29-.24-.17-.42a.33.33,0,0,1,.23-.1.63.63,0,0,1,.47.31S165.66,335.6,165.57,335.64Zm4.21-4.36h-.26s0-.11.07-.11a1.11,1.11,0,0,1,.26,0S169.81,331.27,169.78,331.28Zm5.55-10.75c0,.32.06.65.07,1,.16,4.65-1.7,5.16-5.45,5.3l-4,.16a2.3,2.3,0,0,1-2.52-2.23l-.24-5.55a2.31,2.31,0,0,1,2.34-2.43l4-.16c3.42-.13,5.3.19,5.74,3.72C175.41,320.4,175.42,320.46,175.33,320.53Z"/><path class="cls-1" d="M227.07,307.27q-7.63,23.33-15.63,46.56c-.52,1.53.15,2.53,1.82,2.74,3.14.41,6.29.8,9.43,1.19,1.43.17,2.54-.38,2.85-1.63q2-7.31,3.91-14.62a.9.9,0,0,1-.15-.19c-.09-.17,0-.33.19-.44a.58.58,0,0,1,.14-.05q2-7.63,4-15.29c.24-.72.86-.65.93.11q.78,15.86,1.71,31.73a2.39,2.39,0,0,0,2.4,2.23c2.28.24,4.55.49,6.83.72a2.37,2.37,0,0,0,2.81-1.67q3.48-12.54,6.85-25.08a2,2,0,0,1-.76-.33.41.41,0,0,1-.11-.66,1.3,1.3,0,0,1,1.27-.5c.37-1.36.74-2.73,1.1-4.09.23-.73.85-.67.93.09q.71,15.81,1.51,31.62c0,1.28,1,2.05,2.44,2.18,3.15.29,6.3.56,9.45.83a2.34,2.34,0,0,0,1.85-.48,1.19,1.19,0,0,1-.08-.2c-.05-.16.21-.57.42-.67a.52.52,0,0,1,.13-.06,2.86,2.86,0,0,0,0-.89c-.71-5.9-1.38-11.81-2.05-17.71a1.44,1.44,0,0,1-.31.22,1.59,1.59,0,0,1-1,.13.8.8,0,0,1-.66-.77c0-.35.21-.62.62-.82a.85.85,0,0,1,.32-.09,1.36,1.36,0,0,1,.87.25q-1.69-15-3.28-30a2.3,2.3,0,0,0-2.34-2.17c-3.58-.33-7.16-.68-10.74-1a2.35,2.35,0,0,0-2.71,1.68c-.34,1-.69,2-1,3a.27.27,0,0,1,.13.33.6.6,0,0,1-.34.41h0Q248.44,321,246,328.05c-.23.73-.85.66-.93-.1q-1.14-9.42-2.23-18.84a2.35,2.35,0,0,0-2.29-2.22c-3.58-.4-7.15-.82-10.73-1.25A2.3,2.3,0,0,0,227.07,307.27Zm-5.5,33.36a.64.64,0,0,1-.33.07,3.31,3.31,0,0,1-.64-.14c-.44-.15-.52-.56-.15-.83a3.12,3.12,0,0,1,.58-.28c.41-.06.95.23,1,.53A.69.69,0,0,1,221.57,340.63Zm4.34-27a.77.77,0,0,1-.26.12.51.51,0,0,1-.54-.15c-.1-.15,0-.32.14-.45a.79.79,0,0,1,.55.11C226,313.42,226.05,313.55,225.91,313.67Zm34.59,25.22a1,1,0,0,1-.19-.16.52.52,0,0,1,.45-.27c.2,0,.43.05.44.21s-.23.25-.43.26A.8.8,0,0,1,260.5,338.89Zm1.53,9.28L262,348l.16-.06a1.39,1.39,0,0,1,.06.19S262.08,348.15,262,348.17Zm7.8,5.75a.8.8,0,0,1-.59.56,2.37,2.37,0,0,1-1.32,0c-.24,0-.59-.39-.57-.55a1.44,1.44,0,0,1,1.35-1C269.39,352.93,270,353.39,269.83,353.92Zm.35-8.48-.11.14-.08-.14Zm.14,3.41a1.17,1.17,0,0,1,1.1.45,1.48,1.48,0,0,1,.16.46c.11.65-.51,1-1.09,1.07a4.85,4.85,0,0,1-.66,0,1,1,0,0,1-.9-.59C268.73,349.58,269.55,348.86,270.32,348.85Zm-5.06-37.27.23.08-.23.09Zm-.66,26.65a4.85,4.85,0,0,1,2.37-.91h.33c.4,0,.92.35.87.6a.94.94,0,0,1-.46.65,1.3,1.3,0,0,1-.29.14l-1.52.56c-.57.2-1.42-.13-1.53-.59A.49.49,0,0,1,264.6,338.23ZM263,327.9c.05.05,0,.15,0,.22s-.12.05-.19.08-.12-.14-.11-.21C262.72,327.75,262.86,327.71,263,327.9Zm-5.71-12.08c.33-.25.5-.6.92-.78a.51.51,0,0,1,.32-.08c.61.18,1.1.52,1.71.71a2.3,2.3,0,0,1,.54.28,2.49,2.49,0,0,1,1,1.24,1.2,1.2,0,0,1-.52,1.42,3.36,3.36,0,0,1-.82.49,11.05,11.05,0,0,1-1.61.48,2.93,2.93,0,0,1-2.23-.31,3,3,0,0,1-.93-.69.72.72,0,0,1-.1-.24.94.94,0,0,1,.06-.24,12.11,12.11,0,0,0,.73-1.18A2.71,2.71,0,0,1,257.3,315.82Zm-3.45-7.11a.51.51,0,0,1,.56-.23c.35.06.62.33.51.52a.72.72,0,0,1-.47.32.63.63,0,0,1-.58-.17A.31.31,0,0,1,253.85,308.71Zm.08,18.32a.86.86,0,0,1,.4,1.12c-.22.57-.62.82-1.47.85s-1.51-.32-1.54-.85a1.15,1.15,0,0,1,.78-1.17A1.72,1.72,0,0,1,253.93,327Zm-3.3-5.42a2.81,2.81,0,0,1,.89.28,1.2,1.2,0,0,1,.73,1,1.18,1.18,0,0,1-1.11,1.13,4.12,4.12,0,0,1-1,.06,1.38,1.38,0,0,1-1.34-.91,1.66,1.66,0,0,1-.07-.49C248.76,322,249.75,321.46,250.63,321.61Zm-8.52,26a.65.65,0,0,1-.18.17c-.19-.08-.26-.21-.2-.37s.13-.1.2-.16S242.21,347.44,242.11,347.6Zm-5-34.5a4.23,4.23,0,0,1,.23-.48,1.49,1.49,0,0,1,1-.64l.38,0a4.41,4.41,0,0,1,.63,0,1.54,1.54,0,0,1,1.26.68,1.07,1.07,0,0,1,.09,1,1.7,1.7,0,0,1-1.59.78,7,7,0,0,1-1.56-.41A.84.84,0,0,1,237.12,313.1Zm-7.41-7.21c.33,0,.38.12.12.24a.54.54,0,0,1-.31,0c-.05,0-.07-.1-.1-.16S229.62,305.88,229.71,305.89Z"/><path class="cls-1" d="M349,320.42l-2.66,1.17-.66-.66a9.55,9.55,0,0,1-1-1.43l-3.77-.81c-1.4-.29-2.37.16-2.69,1.42q-2.25,8.79-4.48,17.58l0,0a.49.49,0,0,1,0,.16h0q-2.85,11.2-5.71,22.39c-.3,1.19.3,2,1.64,2.33,2.59.54,5.18,1.1,7.77,1.66a2,2,0,0,0,2.62-1.42q5.35-20,10.7-40C351,321.53,350.42,320.74,349,320.42Zm-7.9,15a2.6,2.6,0,0,1-.71-2.35,1.32,1.32,0,0,1,1.7-1.28l1.61,1.28Z"/><path class="cls-1" d="M62.36,237.09c.28.51.54,1,.78,1.53,0-.49,0-1-.06-1.48l-.07,0A1.41,1.41,0,0,1,62.36,237.09Z"/><path class="cls-1" d="M80.38,267.65q-.18-.6-.39-1.23c-.29-.87-.63-1.8-1-2.76a36.15,36.15,0,0,0-1.6-3.36,30.32,30.32,0,0,0-7.5-9.14,27.6,27.6,0,0,0-2.64-1.87c-.68-.43-1.38-.85-2.13-1.23L64.9,248c-.49-.25-1-.49-1.51-.71a29.88,29.88,0,0,0-3.29-1.19,33.33,33.33,0,0,0-5-1.09,40.68,40.68,0,0,0-7.87-.26c-.07.22-.25.42-.41.42a.87.87,0,0,1-.63-.36c-1.13.09-2.29.22-3.47.38q-2.55.36-5.23,1c-1.17.26-2.36.57-3.56.91q-3.48,1-7.18,2.32C41.85,266,50.94,275.13,80.38,267.65ZM66.27,267a1,1,0,0,1-.34,0c-.72-.24-.94-.68-.61-1.25a.41.41,0,0,1,.54-.16,1,1,0,0,1,.76,1A.47.47,0,0,1,66.27,267Zm7.49-4.66.13-.14.08.16Zm-4.32-5.89c0-.06.15-.16.19-.15a.35.35,0,0,1,.32.32.27.27,0,0,1-.12.18.26.26,0,0,1-.4-.12A.24.24,0,0,1,69.44,256.45ZM42.2,247.64c-.05.07-.08.19-.13.2-.23,0-.32-.1-.23-.31,0,0,.14-.07.21-.1Zm10.72,15.17-.16,0v-.06l-.57.05a2.25,2.25,0,0,1-1.93-.77.34.34,0,0,1,0-.45.6.6,0,0,1,.55-.21,1.65,1.65,0,0,1,.32,0,2.54,2.54,0,0,1,1.62,1.15.59.59,0,0,1,0,.19h.09l-.09.07.09-.07.07.11c.06,0,.1,0,.11.06S53,262.93,52.92,262.81Zm.94,6.16a.86.86,0,0,1,0-.23s.11-.05.17-.07l.05.23ZM55,264.41a.57.57,0,0,1-.53.08.34.34,0,0,1-.2-.17c-.08-.23.17-.49.45-.5s.44.05.52.2S55.21,264.31,55,264.41Zm.81-9.64a.59.59,0,0,1-.6.12c-.6-.15-.94-.39-.85-.6a.56.56,0,0,1,.58-.16,1.25,1.25,0,0,1,.76.43C55.79,254.63,55.89,254.74,55.85,254.77ZM58,251c0,.07-.12.12-.18.18l-.15-.2c0-.07,0-.18.09-.21S58.08,250.82,58,251Z"/><path class="cls-1" d="M56.26,241.84a36.3,36.3,0,0,1,4.15.88l1,.31c-.26-.73-.55-1.45-.87-2.17a36.57,36.57,0,0,0-7.41-10.7c-.58-.59-1.19-1.16-1.81-1.72s-1.38-1.21-2.1-1.78-1.75-1.32-2.67-1.93c-.64-.43-1.3-.85-2-1.25l-.57-.33c-.72-.42-1.49-.82-2.29-1.22a47.08,47.08,0,0,0-22.51-4.75c-.84,0-1.7.07-2.57.13s-1.51.13-2.29.22a62.42,62.42,0,0,0-7.26,1.28,121.07,121.07,0,0,0,10.6,14.32.92.92,0,0,1,.45-.32.84.84,0,0,1,1,.35c.09.25-.29.65-.68.72h-.09A33.9,33.9,0,0,0,34,243.61C42.24,241.4,49.69,240.81,56.26,241.84Zm-4.69-1.58c-.06-.06-.17-.12-.16-.18s.17-.16.19-.15C51.87,240,51.85,240.16,51.57,240.26Zm1.26-2.62c-.09,0-.21.09-.29.07-.33-.06-.36-.18-.08-.29a.51.51,0,0,1,.31.05S52.81,237.58,52.83,237.64ZM44,223.7a.39.39,0,0,1,.51.21s-.14.1-.22.16c-.27.07-.46,0-.5-.21C43.75,223.81,43.88,223.71,44,223.7Zm-21.65-5.27a.35.35,0,0,1,.21-.16.62.62,0,0,1,.55.16.46.46,0,0,1-.32.37.44.44,0,0,1-.27,0A.28.28,0,0,1,22.32,218.43Zm15.93,15.18a1.71,1.71,0,0,1-.91.23c-.22-.05-.38-.14-.4-.28a.26.26,0,0,1,.1-.23,1.88,1.88,0,0,1,.85-.31c.25,0,.46,0,.55.18S38.44,233.51,38.25,233.61Zm9.28.94a1.67,1.67,0,0,1-1.22-.81c-.08-.16-.14-.33-.21-.49s.3-.92.78-1c1.31-.29,2.32.42,2.23,1.33a1.41,1.41,0,0,1-.16.49A1.45,1.45,0,0,1,47.53,234.55Z"/><path class="cls-1" d="M71.53,212.24q-.56,1.45-1,2.85c-.45,1.27-.86,2.51-1.22,3.71-2.32,7.58-3.15,13.95-2.87,19.37A35.66,35.66,0,0,0,66.8,242c.17,1,.38,2,.63,2.93.07.25.13.5.2.74a30.73,30.73,0,0,1,5,3.49,1.15,1.15,0,0,1,.61.31.3.3,0,0,1,.11.31A32.18,32.18,0,0,1,77.14,254a.29.29,0,0,1,.29-.28.77.77,0,0,1,.57.2c.19.16.15.31-.07.39a1.47,1.47,0,0,1-.29.05,1,1,0,0,1-.28-.08,38.28,38.28,0,0,1,5.38,10l.82.53c13.07-29.87,4.93-41.84-10.1-57.33C72.75,209.11,72.12,210.69,71.53,212.24ZM70.1,220.4c.23.09.22.19,0,.28,0-.05-.15-.1-.15-.15S70.07,220.39,70.1,220.4Zm-.61,10.45a.45.45,0,0,1-.55.17.57.57,0,0,1-.45-.3c-.09-.17,0-.31.18-.43a.51.51,0,0,1,.57,0C69.56,230.41,69.64,230.63,69.49,230.85Zm.11,14.79-.18-.09.2-.07Zm15.87-4a1.86,1.86,0,0,1-1.49-.89c0-.07,0-.16,0-.27a1,1,0,0,1,.52-.57.79.79,0,0,1,.64-.06,1.73,1.73,0,0,1,1.2.79l.09.23C86.55,241.3,86,241.72,85.47,241.65Zm1.94,7.92,0-.17.22.11Zm.38-12c0,.33-.57.57-1,.45a4.82,4.82,0,0,1-1.42-.64.93.93,0,0,1-.38-.68c-.06-.4.52-.8,1.06-.72C87.11,236.07,87.87,236.78,87.79,237.52Zm-3.22-9.7c.08-.21.29-.24.53-.09a6.29,6.29,0,0,1,.62.17c.09,0,.2.11.21.18s-.13.23-.4.22a3.55,3.55,0,0,1-.64-.1C84.64,228.14,84.5,228,84.57,227.82Zm-2.95,3a.63.63,0,0,1,.41-.36,1.84,1.84,0,0,1,.33,0,2.15,2.15,0,0,1,1,.16,3.13,3.13,0,0,1,1.22.86c.15.18.1.3-.22.34a3.12,3.12,0,0,1-.68.05,4.59,4.59,0,0,1-1.86-.56C81.6,231.19,81.54,231,81.62,230.85Zm-8-6.71-.2,0,0-.13Z"/><path class="cls-1" d="M15.54,214.09a51.74,51.74,0,0,1,24.77,3.57,60,60,0,0,1-1.47-24.75,43.87,43.87,0,0,0-4-5.14,1.79,1.79,0,0,1,0,.23c0,.16,0,.33,0,.49s-.55.43-.78.33-.4-.16-.57-.26A5,5,0,0,1,31.84,187a1.16,1.16,0,0,1,.05-1.44,1,1,0,0,1,.42-.27C24.2,177.87,13.9,174.84,0,171.62,1,192.83,7,206,15.54,214.09ZM36,189.61c.25.1.24.21,0,.3-.06-.06-.16-.11-.16-.16A.33.33,0,0,1,36,189.61ZM16.77,201.69l0-.13.16.08Zm.6-7.69c.21,0,.47.27.46.52s-.31.52-.54.45-.6-.34-.58-.5A.83.83,0,0,1,17.37,194ZM14.26,199c.39,0,.8.42.56.7a.42.42,0,0,1-.55.14.83.83,0,0,1-.44-.33C13.7,199.26,14,199,14.26,199Zm-2.91,4.17c.08,0,.16.11.2.18a.31.31,0,0,1,0,.23.75.75,0,0,1-.17.19,1.67,1.67,0,0,1-.2-.08A.29.29,0,0,1,11.35,203.12Zm-3.2-27c.07,0,.11.09.17.14l-.25.09c-.09,0-.23,0-.26-.07S7.88,176.13,8.15,176.16ZM6.47,189.35a.64.64,0,0,1,.59.5c0,.16-.14.28-.37.27a.59.59,0,0,1-.59-.5A.33.33,0,0,1,6.47,189.35Zm-2.93-8.08.09.2-.22,0Zm-2.15-2c.23.1.32.25.22.43a.51.51,0,0,1-.53.23c-.22-.06-.37-.17-.39-.34S1.1,179.19,1.39,179.3Z"/><path class="cls-1" d="M44.54,185.16l-.67-.53a74.58,74.58,0,0,0-1.56,7.46c-.14.87-.26,1.73-.36,2.59s-.21,1.95-.28,2.91a58.26,58.26,0,0,0,0,9.35.27.27,0,0,1,.12.15s0,0-.1.08a50.46,50.46,0,0,0,2.65,12.41c.66.35,1.29.7,1.88,1.06A44.49,44.49,0,0,1,51.19,224c.74.58,1.45,1.18,2.15,1.79s1.49,1.38,2.2,2.1A42.42,42.42,0,0,1,61.13,235a.91.91,0,0,1,.41-.22,2,2,0,0,1,1.32.12,1.24,1.24,0,0,1,.23.12,58.43,58.43,0,0,1,1.57-11.77h0a3,3,0,0,1-2.1-1.51,1.35,1.35,0,0,1,.58-1.11,2.12,2.12,0,0,1,2.15.1l0,.05c.72-2.7,1.62-5.55,2.74-8.56C64.62,201,55.23,193.6,44.54,185.16Zm19.13,29.92a.47.47,0,0,1,.58-.17c.3.08.36.22.15.4a.92.92,0,0,1-.25.17,1,1,0,0,1-.31.05C63.65,215.4,63.57,215.24,63.67,215.08Zm-9.59-7.18a.67.67,0,0,1,0,.73,1.33,1.33,0,0,1-1,.61,5.08,5.08,0,0,1-.68,0c-1-.14-1.58-1.05-1.3-1.53a1,1,0,0,1,.69-.52,2.66,2.66,0,0,1,1.65.12A1.28,1.28,0,0,1,54.08,207.9ZM52.22,210l-.21.15c-.07-.05-.18-.11-.18-.17s.13-.11.2-.16Zm.48-6.31a.43.43,0,0,1,.53.19s-.11.13-.2.17a1.87,1.87,0,0,1-.34,0c-.06-.07-.16-.14-.16-.2A.25.25,0,0,1,52.7,203.73ZM49.21,200a3.59,3.59,0,0,1,.37-.42,1.74,1.74,0,0,1,1.49-.41,1.92,1.92,0,0,1,.89.33.93.93,0,0,1,.41,1.14,1.46,1.46,0,0,1-1.13.85c-.1,0-.22,0-.33,0a1.77,1.77,0,0,1-.93-.26,4.57,4.57,0,0,1-.67-.55A.53.53,0,0,1,49.21,200Zm0,3.71.19.17-.22.16c-.07-.06-.19-.12-.19-.17S49.16,203.8,49.24,203.75Zm-4.71-17.28a.41.41,0,0,1,.53.09c.06.16,0,.28-.26.31a.44.44,0,0,1-.49-.24S44.44,186.5,44.53,186.47Zm-.18,10.83a.49.49,0,0,1-.19,0,.41.41,0,0,1-.07-.11l-.14,0s0,0,0-.08c-.19,0-.28-.09-.23-.2s.17,0,.2.07a.28.28,0,0,1,0,.13H44l.05.09C44.24,197.17,44.34,197.21,44.35,197.3Zm12.2,25.51a1,1,0,0,1-.91.62,1.61,1.61,0,0,1-1.65-1c-.1-.42.25-.82.82-.94a1.37,1.37,0,0,1,1.21.22A1.16,1.16,0,0,1,56.55,222.81Zm3.2-3.9c0,.07-.15.11-.23.16a1.35,1.35,0,0,1-.32-.09,9.07,9.07,0,0,0-2.28-1.09c-.1,0-.18-.1-.28-.14a1.14,1.14,0,0,1-.65-1.34,1.77,1.77,0,0,1,.7-.85.93.93,0,0,1,.62-.15,1.41,1.41,0,0,1,1.36,1,6.31,6.31,0,0,1,.1.76,1.49,1.49,0,0,0,.65,1.13,1.58,1.58,0,0,1,.36.42A.22.22,0,0,1,59.75,218.91Zm1.37,7.16c.26.1.25.2,0,.28l-.18-.15C61,226.15,61.09,226.06,61.12,226.07ZM58.9,202.46a.56.56,0,0,1,.53-.26c.4,0,.91.39.87.63A.87.87,0,0,1,60,203a1,1,0,0,1-.92-.09C58.92,202.79,58.81,202.64,58.9,202.46Zm-.92,4.9c.1-.21.19-.32.32-.25s.13.13.19.2c.25.27.52.54.76.82a.53.53,0,0,1,.1.48,2.56,2.56,0,0,1-.23.47,1,1,0,0,1-1.4.12c-.32-.27-.46-.58-.28-.92S57.82,207.67,58,207.36Z"/><path class="cls-1" d="M250.3,265.38a37.4,37.4,0,0,1,6.77-11.73h0a22.34,22.34,0,0,0-2.72-.24,3,3,0,0,1-1.57-.46c-.78-.49-1.59-1-2.3-1.5a8.19,8.19,0,0,1-1.59-1.64,2.86,2.86,0,0,1-.2-.48,4.14,4.14,0,0,0-.19-.49,1.21,1.21,0,0,0-1.41-.39c-.28.14-.56.3-.83.45a4,4,0,0,1-1.21.47,3.5,3.5,0,0,0-1,.34,85.37,85.37,0,0,0,5.45,16.2Zm-.55-10.78a.56.56,0,0,1,.53.15s0,.12-.09.16a.49.49,0,0,1-.52,0c-.07,0-.15-.13-.13-.17A.35.35,0,0,1,249.75,254.6Z"/><path class="cls-1" d="M249,247.74a.28.28,0,0,0,.22-.32.43.43,0,0,0-.44.12C248.68,247.67,248.79,247.78,249,247.74Z"/><path class="cls-1" d="M306.3,250.48q-3.69-1.36-7.18-2.32c-1.2-.34-2.39-.65-3.55-.91-1.46-.33-2.87-.6-4.27-.82a1.26,1.26,0,0,1-.21.26,1.72,1.72,0,0,1-.53.31c-1.2.4-2.35,0-2.62-.92a.28.28,0,0,1,0-.09,42.89,42.89,0,0,0-10,.1,33.07,33.07,0,0,0-5,1.09,29.88,29.88,0,0,0-3.29,1.19c-.51.22-1,.46-1.52.71l-.18.09c-.33.16-.64.34-.95.52a.82.82,0,0,1-.36.83,5.85,5.85,0,0,1-.77.47,1.09,1.09,0,0,1-.31.08A1.44,1.44,0,0,1,265,251c-.63.42-1.25.86-1.82,1.32a30.43,30.43,0,0,0-7.49,9.14,36.33,36.33,0,0,0-1.61,3.36c-.4,1-.75,1.89-1,2.76q-.21.63-.39,1.23C282.1,276.24,291.19,267.13,306.3,250.48Zm-10.46,9.06a.45.45,0,0,1,.55-.15c.31.1.54.39.46.54a.77.77,0,0,1-.79.19C295.77,260,295.68,259.75,295.84,259.54Zm-3.4-2.63,0,.13-.17-.08Zm-6.18-4.84a1.87,1.87,0,0,1,1-.61,1.34,1.34,0,0,1,.66,0,4,4,0,0,1,1.63.86,1.46,1.46,0,0,1,.33.43c.15.32.26.64.38,1s-.09.46-.47.57-.64.14-.9.2a2.14,2.14,0,0,1-.4-.08,7.43,7.43,0,0,1-2.15-1.18A.77.77,0,0,1,286.26,252.07Zm-2.78,9.34a2,2,0,0,1,1.75.58,4.58,4.58,0,0,1,.34.43.55.55,0,0,1-.07.71,1.6,1.6,0,0,1-.78.46.91.91,0,0,1-.65,0,4.08,4.08,0,0,1-1.29-.8c-.13-.12-.14-.31-.21-.46A.94.94,0,0,1,283.48,261.41Zm-4.32-11.65.33,0a2.31,2.31,0,0,1,1.29.27c.44.26.85.55,1.26.83a.31.31,0,0,1,.08.48.76.76,0,0,1-.53.27c-.34,0-.68,0-1.4,0a2.42,2.42,0,0,1-.64-.06,1.63,1.63,0,0,1-1.21-.81C278.18,250.35,278.68,249.77,279.16,249.76Zm-20,16.2.14-.14.09.16Zm4.42-4.79c-.38-.13-.59-.54-.4-.79a.81.81,0,0,1,1.07-.05.67.67,0,0,1,.19.43C264.49,261.11,264.06,261.31,263.62,261.17Zm1.43,9.11a.55.55,0,0,1-.73.21c-.21-.1-.29-.23-.22-.41a.57.57,0,0,1,.73-.2C265,270,265.15,270.12,265.05,270.28Zm4-5.53c-.27.74-.38,1.49-.72,2.21,0,.08-.13.14-.18.21a2.78,2.78,0,0,1-2.16.52,5,5,0,0,1-.62-.19,1.45,1.45,0,0,1-.5-.33,8.28,8.28,0,0,1-.59-.91,2,2,0,0,1-.2-.48,2.92,2.92,0,0,1,0-.51,3.35,3.35,0,0,1,.74-2.18,2.21,2.21,0,0,1,1.34-.74,2.15,2.15,0,0,1,.67,0,8.62,8.62,0,0,1,1,.22,1.12,1.12,0,0,1,.72.5,10.67,10.67,0,0,1,.53,1.2A.75.75,0,0,1,269.05,264.75Zm.47-8.06a1.34,1.34,0,0,1-.3.05.92.92,0,0,1-.26-.14.29.29,0,0,1-.09-.22c0-.26.31-.21.67.14C269.57,256.56,269.56,256.67,269.52,256.69Zm1.23-4a1.33,1.33,0,0,1,.14-.48,2.17,2.17,0,0,1,.94-.72,1.66,1.66,0,0,1,2,.51c0,.08.09.16.12.24.25.7-.31,1.36-1.29,1.51a1.87,1.87,0,0,1-1.73-.57A.7.7,0,0,1,270.75,252.71Z"/><path class="cls-1" d="M243.13,244a14.84,14.84,0,0,1,2.41-.06,1,1,0,0,1,.79.41,1.66,1.66,0,0,0,.57.61c.55.32.92.76,1.41,1.1a3.15,3.15,0,0,1,.93,1.29,1.48,1.48,0,0,0,.31,0l1.49-.61a3.78,3.78,0,0,1,1.67-.22,2,2,0,0,1,.65.13,12,12,0,0,1,2.21,1.2,3.3,3.3,0,0,1,.83.79c.42.6.87,1.19,1.33,1.77a2.57,2.57,0,0,1,.56,1.91,30.91,30.91,0,0,1,7.12-5.51c.07-.24.13-.49.2-.74.24-.94.46-1.91.62-2.93a35.66,35.66,0,0,0,.41-3.86,48.13,48.13,0,0,0-1-11.93,1.6,1.6,0,0,1-.39.11c-.22,0-.45,0-.68,0l-.68,0a2.35,2.35,0,0,1-1.47-.57,4.67,4.67,0,0,1-.55-.64.78.78,0,0,1,0-1,7.63,7.63,0,0,1,.49-.67,1.18,1.18,0,0,1,.52-.32,5.62,5.62,0,0,1,1.3-.32,3,3,0,0,1,.73,0c-.33-1.32-.69-2.67-1.12-4.08-.37-1.2-.78-2.44-1.22-3.71q-.49-1.39-1.05-2.85c-.6-1.55-1.23-3.13-1.94-4.77C248.88,219.6,241.68,228.85,243.13,244Zm19-22.79a1.18,1.18,0,0,1,1.61-.23c.28.2.33.41.16.66a1.19,1.19,0,0,1-1.07.48,1,1,0,0,1-.3,0A.74.74,0,0,1,262.16,221.24Zm-2.37,21.86a1.66,1.66,0,0,1,2.3,0,.65.65,0,0,1,.11.73,1.09,1.09,0,0,1-.77.44,2.17,2.17,0,0,1-1.25-.29.9.9,0,0,1-.45-.65C259.75,243.27,259.73,243.17,259.79,243.1Zm-2.3-25.27c.09,0,.14.13.21.19a.46.46,0,0,1-.56.15c-.09,0-.23-.15-.21-.17A.5.5,0,0,1,257.49,217.83Zm-1.14,23a2,2,0,0,1,1.11-.51c.67-.11,1.35.35,1.29.87s-.84,1.06-1.64,1a1.67,1.67,0,0,1-.32-.08c-.46-.16-.64-.44-.63-.77A.61.61,0,0,1,256.35,240.88Z"/><path class="cls-1" d="M271.62,244.14l1-.31a36.12,36.12,0,0,1,4.14-.88,46.84,46.84,0,0,1,13.24,0,1.36,1.36,0,0,1,.4-.25,2.06,2.06,0,0,1,1.32,0,2.31,2.31,0,0,1,1.11.72q3,.53,6.23,1.38c12.67-3.69,18.94-13,26.87-24.8a63,63,0,0,0-7.27-1.28c-.77-.09-1.53-.16-2.28-.22s-1.74-.11-2.58-.13a47,47,0,0,0-22.5,4.75c-.81.4-1.57.8-2.29,1.22l-.58.33c-.67.4-1.32.82-2,1.25-.92.61-1.81,1.25-2.67,1.93s-1.43,1.17-2.1,1.78-1.24,1.13-1.82,1.72a36.76,36.76,0,0,0-7.41,10.7C272.17,242.69,271.88,243.41,271.62,244.14Zm40.15-6.74a2.89,2.89,0,0,1,.29,0s-.06.11-.09.11a1.5,1.5,0,0,1-.29,0S311.74,237.41,311.77,237.4Zm-5.83-5.49a2.21,2.21,0,0,1,2-.79,3.17,3.17,0,0,1,1.8.62c.07.06.16.11.23.18l1.72,1.54c.05,0,0,.16,0,.24a.45.45,0,0,1-.44.31c-.45,0-.9,0-1.35,0v0c-.34,0-.68,0-1,0a3.5,3.5,0,0,1-3-1.42A.62.62,0,0,1,305.94,231.91Zm-3.53-10.21.19.09-.22.06Zm-5.84,17.7c0,.16-.07.29-.28.37a1.45,1.45,0,0,1-.3.06.62.62,0,0,1-.46-.25c-.08-.15,0-.3.18-.41a.58.58,0,0,1,.55-.14A.43.43,0,0,1,296.57,239.4Zm-1.8-6.16a.62.62,0,0,1,.67-.4,1.52,1.52,0,0,1,.48.28c.07,0,0,.15.07.23s.23.45.36.67.06.33-.17.41c-.06,0-.19-.06-.29-.1a2.34,2.34,0,0,1-1.1-.85A.48.48,0,0,1,294.77,233.24Zm-2-4.56c.07-.07.15-.17.2-.16.29,0,.65.32.58.45a.39.39,0,0,1-.25.14.58.58,0,0,1-.52-.22C292.78,228.82,292.81,228.73,292.81,228.68ZM289.48,233c0,.06.13.12.15.18a.26.26,0,0,1,0,.21c0,.06-.11.11-.17.17a.34.34,0,0,1-.15-.39Z"/><path class="cls-1" d="M80.53,40c-.34.16-.66.32-1,.48a11,11,0,0,0-1.48.92,6.19,6.19,0,0,0-.53.44,2,2,0,0,0-.78,1.71h0l-.18,5.56h0a.63.63,0,0,0,0,.27,1.22,1.22,0,0,0,.1.24.92.92,0,0,0,1.41.21l.09-.08a.37.37,0,0,1,.15-.08.27.27,0,0,1,.16,0,.74.74,0,0,1,.12.09c.08.06.19.16.33.29l.35.3c-.15,1.17-.29,2.27-.41,3.27v0c-.08.71-.14,1.38-.18,2q0,.47,0,.9c0,.28,0,.56,0,.82l.06.53a5,5,0,0,0,.11.58s0,.1,0,.15l.06.19.06.17s0,.1,0,.14l.11.23,0,.07a1.4,1.4,0,0,0,.1.16.75.75,0,0,0,.07.12l.06.09.13.17,0,.05s0,0,0,0l.13.15a.52.52,0,0,1,.11.1l.14.12.13.1.14.1a1.32,1.32,0,0,0,.2.12l.11.07.18.09.16.07.17.07.14.06.06,0,.06,0,.07,0,.09,0,.18,0,0,0h.08l.31.08a1.36,1.36,0,0,1,1,.78,1.19,1.19,0,0,1,.11.42c0,.23,0,.49.07.78,0,0,0,.09,0,.14,0,.27,0,.58.08.9,0,.07,0,.14,0,.22.05.62.11,1.32.18,2.09,0,.06,0,.11,0,.17.13,1.57.3,3.42.47,5.42.09,1,.19,2,.28,3.11s.2,2.15.3,3.26a1.23,1.23,0,0,0,0,.19c0,.32,0,.65.08,1s0,.46.07.7c0,.47.09,1,.13,1.42a2.45,2.45,0,0,1,0,.27,1.1,1.1,0,0,1,0,.18c.26,2.79.52,5.56.77,8.08l.09.86c.06.62.12,1.23.18,1.82,0,.18,0,.36,0,.54,0,.36.08.71.11,1s.07.67.11,1l.06.59c0,.26.06.5.08.74s.08.64.11.94.07.63.11.92c0,.12,0,.24,0,.36,0,.32.09.67.14,1s.1.73.15,1.12.09.63.14,1,.1.66.15,1c.08.5.16,1,.24,1.57,0,.18.06.36.08.54.12.72.23,1.47.36,2.24l.09.57c.18,1.16.37,2.34.56,3.53,0,.2.06.4.1.6.19,1.2.38,2.4.56,3.58.07.41.13.82.19,1.23l.18,1.11c0,.19,0,.38.08.56.06.39.12.77.17,1.14,0,.08,0,.15,0,.22,0,.3.08.59.13.88.07.48.13,1,.2,1.41,0,.06,0,.12,0,.18.12.81.22,1.58.31,2.31,0,0,0,.09,0,.13,0,.31.07.6.1.89s0,.36.06.54c.06.53.11,1,.15,1.49,0,.21,0,.42,0,.62,0,.37,0,.7,0,1a2.8,2.8,0,0,1,0,.41c0,.13,0,.24,0,.35s0,.34-.06.53-.1.56-.17.86-.1.45-.16.69c-.12.48-.27,1-.43,1.51-.05.18-.1.36-.16.54l-.33,1c-.11.36-.23.72-.35,1.08-.71,2.2-1.47,4.58-1.93,6.75l-.12.58q-.11.57-.18,1.11a12.49,12.49,0,0,0-.12,1.45v.23c0,.29,0,.57,0,.83s0,.26,0,.39,0,.09,0,.13l.09.8v.12c0,.27.07.55.11.82a40.65,40.65,0,0,0,.77,4.21c.11.45.23.89.36,1.31,0,.14.08.28.13.41s.09.29.13.42c.19.54.39,1.05.61,1.53l.16.36.36.66c.12.21.25.41.38.6a5.76,5.76,0,0,0,.42.53l.22.23a2.39,2.39,0,0,0,.22.23L95,175l.71.33.51.11c.33.1.31.22-.07.24a5.33,5.33,0,0,1-1,0l13.45,51,5.4,20.49a7.08,7.08,0,0,1,.2,1,8.63,8.63,0,0,1-.09,3,2.63,2.63,0,0,0-.06.39,3,3,0,0,0,0,.6,2.94,2.94,0,0,0,.1.58l3.08,11.68a.14.14,0,0,0,0,.06s0,0,0,.05l0,.06a1.56,1.56,0,0,0,.06.15l0,0,.07.13,0,.06c0,.05,0,.09.07.13l.13.21a7.9,7.9,0,0,0,.52.73l.12.16.24.28.15.17a15.56,15.56,0,0,0,1.58,1.5l.09.07c.17.14.35.29.55.43l.09.07.59.42.4.26.4.25a21.75,21.75,0,0,0,3.71,1.81l.55.2c.74.26,1.52.5,2.36.71.42.11.85.21,1.3.3s.9.18,1.37.25.74.1,1.11.14.72.11,1.11.14,1,.09,1.57.12l1.67.05,1.9,0a55.57,55.57,0,0,0,8.85-1.06c1.09-.22,2.2-.46,3.36-.75l1.84-.54.84-.27.91-.3c.39-.13.77-.26,1.14-.4l.52-.18c.44-.16.87-.33,1.29-.5l.28-.11c.47-.18.92-.37,1.36-.56l.14-.06,1.38-.63h0c.92-.44,1.79-.88,2.61-1.34h0c.52.32,1.06.62,1.62.93l.31.16c.44.24.9.48,1.37.71l.49.24,1.37.64.49.22c.62.27,1.25.53,1.91.79l0,0c.67.26,1.37.52,2.08.77l.59.21,1.61.53.76.23,1.65.49.73.2c.81.22,1.63.43,2.49.63l2,.39c1.29.24,2.54.43,3.76.6,1.82.24,3.54.39,5.18.48,1.1.05,2.15.08,3.17.07q1.13,0,2.19-.06c.65,0,1.28-.07,1.9-.13l.9-.1.91-.1,1.29-.19,1.23-.23,1.05-.23.52-.12c.51-.12,1-.26,1.47-.4.32-.09.62-.19.92-.29.61-.2,1.21-.41,1.76-.63l.62-.26c.4-.17.79-.34,1.17-.52s.73-.37,1.08-.56.6-.33.89-.5v-.07a.89.89,0,0,1,.3-.44,4.5,4.5,0,0,1,.73-.55,2.49,2.49,0,0,0,1.21-1.49.56.56,0,0,0,0-.49,1.39,1.39,0,0,1,.42-1.67.45.45,0,0,1,.3-.12c.05,0,.13.11.16.18a2.47,2.47,0,0,1,.13,1.26,1,1,0,0,0,0,.75.48.48,0,0,0,.16.19l0,0,0,0a18.35,18.35,0,0,0,1.71-1.75l.17-.21.11-.15.15-.18.13-.18c.11-.16.22-.31.31-.46s.18-.28.26-.41l.13-.24s0,0,0-.08l0-.07.05-.11,0-.12,0,0v0c0-.09.06-.17.08-.24a.93.93,0,0,0,0-.13l3-13.54a3.85,3.85,0,0,0,.09-.67,5.3,5.3,0,0,0,0-.69,2,2,0,0,1-.05-.24,1.18,1.18,0,0,0,0-.2c-.08-.31-.13-.62-.18-.94a10.56,10.56,0,0,1-.12-1.38V246a10.24,10.24,0,0,1,.24-2.27l4.33-19.43,1-4.33,8.31-37.31a1.7,1.7,0,0,1-1.07-.64.71.71,0,0,1,.14-1,2.84,2.84,0,0,1,1.1-.59,1.32,1.32,0,0,1,.33-.08l3.56-16a1.39,1.39,0,0,1-.67-.33c-.28-.57,0-1.19.74-1.54a.85.85,0,0,1,.37-.08l4.26-19.13a6.52,6.52,0,0,0,.48-.55,8.73,8.73,0,0,0,.87-1.33c.13-.25.26-.51.38-.78s.12-.27.17-.41c.23-.56.44-1.16.63-1.79l.09-.34c.06-.21.12-.41.17-.62.13-.49.24-1,.35-1.51s.19-1.07.27-1.61.21-1.35.29-2c.05-.41.1-.82.14-1.23l.09-.95V130l.06-.92V129l0-.45c0-.2,0-.42,0-.63v-.32h0s0-.09,0-.14a.62.62,0,0,0,0-.13c0-.13,0-.27,0-.4s-.06-.55-.1-.83,0-.28-.07-.42-.06-.29-.08-.43-.11-.56-.17-.85-.07-.29-.11-.43,0-.15,0-.22c-.31-1.24-.72-2.53-1.16-3.82-.29-.86-.6-1.72-.9-2.57-.47-1.28-.93-2.52-1.34-3.67l-.21-.61c-.2-.6-.39-1.18-.55-1.71-.08-.28-.16-.53-.22-.78s-.17-.68-.23-1-.08-.42-.1-.61,0-.25,0-.39,0-.63,0-1c0-.19,0-.39,0-.61s0-.46,0-.71c0-.69.08-1.48.14-2.33,0-.33.06-.68.09-1s.08-.9.12-1.37.09-1,.14-1.45.12-1.2.19-1.83c0-.42.09-.84.14-1.27.07-.64.14-1.3.22-2,0-.43.09-.86.14-1.29s.11-.94.17-1.41c.16-1.37.33-2.75.49-4.13,0-.23.06-.46.08-.69.09-.69.17-1.38.25-2.06s.16-1.36.24-2c0-.22.06-.45.08-.67.11-.88.21-1.74.31-2.58,0-.21,0-.42.07-.62.07-.62.14-1.23.2-1.82,0-.39.09-.77.13-1.15s.08-.74.11-1.09.09-.88.13-1.29.08-.81.11-1.18c0-.14,0-.27,0-.42,0-.33.05-.68.08-1.06s0-.7.08-1.07l.06-.86c0-.22,0-.45.05-.68,0-.74.1-1.52.15-2.35,0-.19,0-.39,0-.59v0c.05-.67.09-1.37.13-2.09l.06-1c0-.72.09-1.47.13-2.23.09-1.51.18-3.08.26-4.67.05-.8.09-1.6.13-2.4v-.22l.06-1c0-.32,0-.64,0-1v0c0-.26,0-.51,0-.77l.06-1.12c0-.08,0-.15,0-.22s0-.26,0-.38a.83.83,0,0,1-.39.22c-.27.06-.47,0-.58-.18s-.15-.31-.23-.46a.63.63,0,0,1,.3-.44.62.62,0,0,1,.86.06l.08.1c.11-2.16.21-4.28.31-6.26.09-1.72.17-3.35.24-4.82,0-.49,0-1,.07-1.42v-.19c0-.44,0-.86.06-1.27s0-.78.06-1.14v-.25c0-.37,0-.72.05-1v-.15h0l0-.47c0-.15,0-.29,0-.42a1.52,1.52,0,0,1,1.19-1.43l.35-.1.15,0,.3-.11.15-.05.22-.1.2-.09.18-.09.2-.11.13-.08.21-.14.16-.13.15-.12.15-.14h0a1.36,1.36,0,0,0,.12-.12l.12-.14,0,0s0,0,.05-.05l.05-.06,0-.07a.67.67,0,0,0,.09-.14.36.36,0,0,0,.07-.1.64.64,0,0,0,.08-.14l.1-.18a.36.36,0,0,1,0-.09c0-.09.07-.17.11-.26s0-.12,0-.17a1.59,1.59,0,0,0,.07-.2c0-.07,0-.14.05-.21s0-.06,0-.09a.29.29,0,0,0,0-.09,4.69,4.69,0,0,0,.1-.67c0-.2,0-.4,0-.61a15.23,15.23,0,0,0-.08-2c0-.35-.08-.72-.13-1.1s-.1-.78-.17-1.19h0c-.17-1.15-.39-2.4-.61-3.74.14-.12.26-.24.38-.36l.21-.2c.43-.41.48-.37.76-.14a1.28,1.28,0,0,0,.27.16,1.07,1.07,0,0,0,1.45-.75,1.15,1.15,0,0,0,0-.32l-.46-6.36a2.27,2.27,0,0,0-1-1.93A10.32,10.32,0,0,0,253,5.17q-.51-.25-1.11-.51a47.79,47.79,0,0,0-6-2.08l-1.16-.32a.53.53,0,0,1-.27,0c-.19-.06-.25-.12-.21-.16-.85-.22-1.73-.44-2.63-.64A60.43,60.43,0,0,0,231,0c-.87,0-1.64,0-2.3,0l-.92.11a5.44,5.44,0,0,0-1.4.41,1.91,1.91,0,0,0-1.07,1.1l-3.12,5.57a1,1,0,0,0-.13.59,1.1,1.1,0,0,0,.21.57h0a1.08,1.08,0,0,0,1.1.38c.41-.1.42-.11.73.72.06.16.12.32.2.49-.28.4-.55.79-.81,1.18l-1.44,2.1c-.44.66-.82,1.27-1.16,1.87-.12.2-.25.4-.35.59l-.12.23c-.08.15-.16.3-.23.45s-.22.49-.31.73a.76.76,0,0,0,0,.11,1.27,1.27,0,0,0-.06.18,1.55,1.55,0,0,0-.08.23l0,.08c0,.11-.06.21-.08.32a4.62,4.62,0,0,0-.11.63c0,.05,0,.09,0,.14a1.55,1.55,0,0,1,0,.22v.16a1,1,0,0,0,0,.17,1.34,1.34,0,0,0,0,.2s0,0,0,.06a2.34,2.34,0,0,0,.05.3.09.09,0,0,0,0,.05.06.06,0,0,0,0,0,2.68,2.68,0,0,0,.07.27l.06.18a1.34,1.34,0,0,1,.07.18.54.54,0,0,1,.05.11l0,0,0,.1a.41.41,0,0,0,.05.09l0,.06,0,0,.16.26c.05.08.11.15.17.23a.94.94,0,0,0,.09.12l.2.23.1.11.27.27a.46.46,0,0,1,.07.07,3.88,3.88,0,0,0,.31.26h0l.08.07a1.7,1.7,0,0,1,.33.38,1.46,1.46,0,0,1,.2.44,1.63,1.63,0,0,1,.05.49,1.73,1.73,0,0,1-.11.49l-.55,1.32c-.49,1.21-1.15,2.8-1.91,4.66l-2.17,5.29-.07.17c-1.06,2.59-2.2,5.39-3.34,8.2L212.73,47l-.15.37c-.5,1.25-1,2.48-1.48,3.68-.13.34-.26.66-.39,1s-.27.67-.4,1l-.39,1c-.2.5-.4,1-.59,1.48l-.14.36c-.58,1.44-1.11,2.8-1.58,4L207.15,61a1.8,1.8,0,0,1-.08.21c-.19.49-.36,1-.52,1.38s-.31.83-.45,1.19l-.48,1.34-.93,2.68L204,70c-.07.22-.14.44-.22.66s-.13.4-.2.61-.15.45-.23.67q-.39,1.21-.81,2.46l-.24.72c-.2.63-.41,1.25-.62,1.89,0,.07-.05.14-.07.21l-.15.44c-.58,1.76-1.16,3.53-1.74,5.26l-.21.65c-2.23,6.66-4.32,12.58-5.44,14.36a8.63,8.63,0,0,1-.5.72c-.19.25-.41.51-.64.78s-.23.27-.36.42c-.56.63-1.21,1.3-1.91,2l-.72.71c-.16.17-.32.33-.49.49s-.26.27-.4.4l-.4.4c-.24.24-.48.47-.71.71-.52.51-1,1-1.54,1.56l-1,1-.87,1c-.34.38-.67.77-1,1.15s-.56.71-.82,1-.5.7-.72,1-.43.68-.6,1a8.87,8.87,0,0,0-.47,1l-.39,1c-.06.17-.12.33-.19.5s-.12.34-.19.51a47.6,47.6,0,0,0-1.59,5.15c-.16.69-.3,1.36-.42,2a18.11,18.11,0,0,0-.28,3.26,9.14,9.14,0,0,0,.25,2.09,6.17,6.17,0,0,0,.19.61l-15.56,69.87-14-53a6.63,6.63,0,0,0,.28-1.68c0-.22,0-.45,0-.69s0-.44,0-.67a17.29,17.29,0,0,0-.33-2.15c-.12-.57-.26-1.15-.43-1.74-.31-1.11-.7-2.23-1.12-3.34-.14-.37-.29-.73-.44-1.1l-.18-.43-.18-.43-.37-.84q-.13-.28-.3-.57c-.12-.23-.27-.47-.42-.71l-.28-.43a21.3,21.3,0,0,0-1.41-1.76c-.26-.29-.53-.59-.82-.89s-.57-.59-.87-.88l-.45-.45-.45-.44-1.39-1.3-.64-.59-.37-.34-.36-.33-.44-.41c-.88-.81-1.7-1.58-2.38-2.29-.12-.11-.23-.23-.33-.34a14,14,0,0,1-1-1.27,13.54,13.54,0,0,1-.68-1.21c-.34-.69-.73-1.56-1.17-2.58-1-2.29-2.14-5.31-3.36-8.52l-.21-.56c-.56-1.49-1.13-3-1.69-4.52l-.21-.56-.61-1.62c-.08-.21-.15-.42-.23-.62l-.49-1.32-.3-.79c-.08-.2-.15-.39-.22-.59l-.06-.14c0-.12-.09-.25-.14-.37l-.21-.58c-.39-1-.75-2-1.1-2.84s-.67-1.7-1-2.42l-.78-1.86c-.06-.12-.1-.23-.16-.35l-.07-.18c-.42-1-.89-2.06-1.41-3.24-.18-.4-.36-.8-.54-1.22,0-.1-.09-.2-.14-.31l-.56-1.26-.37-.84L117.56,79c-.25-.57-.52-1.16-.78-1.74l-.63-1.42c-.05-.1-.1-.21-.14-.31l-1.09-2.41c-1.09-2.41-2.17-4.81-3.18-7l-.07-.15c-.49-1.09-1-2.13-1.42-3.11l-.64-1.42L108.47,59l-1.21-2.64a1.19,1.19,0,0,1-.11-.42,1.39,1.39,0,0,1,.18-.82,1.81,1.81,0,0,1,.28-.34l.08-.07.25-.24.06-.06.23-.24,0-.06,0,0c.06-.07.12-.13.17-.2l0-.06,0,0,.09-.14,0-.06.14-.24,0-.07c0-.06,0-.12.07-.17a1,1,0,0,0,.07-.15l0-.15,0-.11s0,0,0,0a2,2,0,0,0,0-.24.24.24,0,0,0,0-.08,2.06,2.06,0,0,0,0-.26v0a0,0,0,0,0,0,0v-.33a.71.71,0,0,0,0-.14,1.28,1.28,0,0,0,0-.19.5.5,0,0,1,0-.12l-.06-.27c0-.09,0-.18-.06-.28a2.76,2.76,0,0,0-.08-.27l0-.07c0-.06,0-.13-.07-.2l-.06-.15,0-.09q-.14-.31-.3-.63c-.1-.19-.21-.38-.33-.58-.38-.65-.86-1.34-1.39-2.09l-.64-.87-.69-.91c-.24-.32-.48-.66-.74-1a3.66,3.66,0,0,0,.15-.43q.09-.27.15-.42l.06-.13c.09-.17.18-.15.41-.1a.82.82,0,0,0,.27,0,.58.58,0,0,0,.26-.06.89.89,0,0,0,.42-.33.93.93,0,0,0,0-1l-2.9-4.75c-.42-1.06-2-1.45-5-1.24a49.27,49.27,0,0,0-7.92,1.33l-1.27.32c-.85.23-1.68.46-2.48.71-1.21.37-2.36.76-3.43,1.16S81.39,39.62,80.53,40ZM248,8.11a.47.47,0,0,1,.39-.35c.25,0,.72.3.71.47s-.49.5-.71.48A.53.53,0,0,1,248,8.11Zm1.81,17.23a1.49,1.49,0,0,1-.81.37.67.67,0,0,1-.75-.31c-.06-.17.08-.31.26-.42a1.15,1.15,0,0,1,1.2-.05c.07,0,.11.11.17.17A.67.67,0,0,1,249.77,25.34Zm0-2.36.12-.17L250,23Zm-5.15,18.81,0,.14-.19-.1ZM223.37,177.52l.23-.07,0,.17ZM227.2,55.38c0-.06.13-.11.19-.16.23.1.31.23.21.4s-.18.16-.22.15C227.18,55.69,227.12,55.55,227.2,55.38Zm3.19,19.76.47.32a.33.33,0,0,1,.12.46.61.61,0,0,1-.48.28,1.15,1.15,0,0,1-1-.48.46.46,0,0,1,.3-.62A.75.75,0,0,1,230.39,75.14ZM230,201.66c0,.07.09.16.07.22a.43.43,0,0,1-.43.27.55.55,0,0,1-.51-.2s0-.16.1-.21C229.57,201.48,229.86,201.45,230,201.66Zm1-103.29a.26.26,0,0,1,.1-.23c.16-.13.71.17.65.36s-.18.1-.28.12C231.25,98.65,231.08,98.56,231,98.37Zm1,24.56c.06.06.15.12.17.18s0,.3-.2.4c-.17-.11-.23-.25-.16-.4S232,123,232.06,122.93Zm0-54a.37.37,0,0,1,.09-.23c.14-.17.32-.16.56,0s.41.23.34.39-.34.21-.57.18S232.07,69.05,232,68.89Zm4.66-17a.53.53,0,0,1,.66-.36,1.2,1.2,0,0,1,.74.4.7.7,0,0,1,.08.2c-.08.18-.71.25-1.18.12Q236.64,52.16,236.7,51.9Zm2.61,116c.12.19,0,.32-.22.43-.56.25-1.41,0-1.45-.62a.5.5,0,0,1,.64-.42A1.7,1.7,0,0,1,239.31,167.92Zm-.54-72.66a.51.51,0,0,1,.3,0c.09,0,.2.12.19.17s-.15.11-.23.16-.24,0-.31,0C238.48,95.49,238.5,95.35,238.77,95.26ZM237.5,96l-.21.06,0-.14Zm2.71,57.31a1.23,1.23,0,0,1-1.23-.65.79.79,0,0,1,0-.48,2.42,2.42,0,0,1,.92-1,.75.75,0,0,1,.87,0,3.36,3.36,0,0,1,.53.61C241.65,152.34,241.1,153.11,240.21,153.26Zm-.08-109.41c.08,0,.15.1.23.15l-.26.13c-.09,0-.24,0-.28-.07S239.84,43.83,240.13,43.85Zm6.3,92.45c.12-.21.31-.22.52,0a3,3,0,0,1,.4.39c.12.16.06.32-.13.44s-.86-.22-.87-.56A.34.34,0,0,1,246.43,136.3Zm-2.06-22.22c.36.18.38,1,0,1.13-.1,0-.22-.06-.3-.1a.69.69,0,0,1-.43-.63C243.67,114.26,244.17,114,244.37,114.08ZM242,109.17c.29.14.58.27.85.43a.63.63,0,0,1,.21.92c0,.06-.16.09-.24.14a2.83,2.83,0,0,1-1.18-.48.69.69,0,0,1-.29-.7A.42.42,0,0,1,242,109.17Zm-13.46,23.46c.37,0,.88.41.8.67a.79.79,0,0,1-.14.23,1,1,0,0,1-1.4,0,.69.69,0,0,1-.1-.25C227.71,133,228.15,132.64,228.55,132.63Zm-3-37.21.08.19-.21,0Zm-4.06-22.29a1,1,0,0,1,.64.07,1.14,1.14,0,0,1,.85,1c0,.3-.54.65-.92.55l-.61-.2a.72.72,0,0,1,0-1.41Zm-.72,24.28c.11-.14.22-.29.35-.43a2.46,2.46,0,0,1,2.39-.65,1.47,1.47,0,0,1,1,.59l.32.45a1,1,0,0,1,.12.74,1.36,1.36,0,0,1-.64.87,2.14,2.14,0,0,1-1.29.33c-.2,0-.43,0-.65,0a2,2,0,0,1-1.36-.68c-.11-.15-.23-.3-.32-.45A.63.63,0,0,1,220.8,97.41ZM206.15,247c-.21.07-.62-.28-.58-.46a1.08,1.08,0,0,1,.26-.14.44.44,0,0,1,.52.19A.28.28,0,0,1,206.15,247Zm-.53,12.61a.38.38,0,0,1,0,.47.9.9,0,0,1-.85.25c-.48-.08-.73-.29-.79-.67s.47-.61.89-.52A1.14,1.14,0,0,1,205.62,259.56Zm5.53-35.47a.62.62,0,0,1-.3,0c-.21-.07-.3-.2-.27-.38l.19-.17c.17.08.33.18.49.27S211.46,224,211.15,224.09Zm1-54.07c-.26-.1-.49-.47-.36-.58a.91.91,0,0,1,.6-.17h.33a.67.67,0,0,1,.65.46c0,.23-.28.47-.6.43A2.55,2.55,0,0,1,212.12,170Zm1.49,35.87-.33,0a.82.82,0,0,1-.58-.2c-.11-.12.34-.29.73-.27a1.19,1.19,0,0,1,.33,0c.1,0,.25.09.25.14S213.85,205.85,213.61,205.89ZM216.05,181s-.11,0-.17,0-.08-.15-.07-.21c.07-.23.19-.25.29-.05S216.08,181,216.05,181Zm-.2-71.78c-.13-.17-.14-.32,0-.44a.49.49,0,0,1,.26-.1c.29,0,.64.38.54.56s-.16.12-.27.15A.49.49,0,0,1,215.85,109.24Zm2.27-62.73a1.22,1.22,0,0,1,1.09.44c.14.16.18.32,0,.48a1.33,1.33,0,0,1-.45.36,1.53,1.53,0,0,1-1,0,.87.87,0,0,1-.55-.61C217.19,46.88,217.68,46.49,218.12,46.51Zm-2.63,32.73a4.49,4.49,0,0,1,1.28,1.16.5.5,0,0,1,.06.24.57.57,0,0,1-.17.47c-.24.29-.6.14-.95.14l-1-.09c-1.19-.13-1.59-1.12-1.06-1.74a.82.82,0,0,1,.22-.19A2,2,0,0,1,215.49,79.24ZM214,77a.34.34,0,0,1-.32.33.54.54,0,0,1-.51-.22,2.26,2.26,0,0,1-.13-.2.52.52,0,0,1,.1-.18.56.56,0,0,1,.56-.1C213.88,76.68,214,76.82,214,77Zm-1-13.42a1.13,1.13,0,0,1,.13.2c0,.17-.06.3-.29.37a.56.56,0,0,1-.54-.12.27.27,0,0,1-.07-.41A.53.53,0,0,1,213,63.55Zm-3.85,93.88-.27-.13c.1,0,.22-.1.31-.08C209.58,157.3,209.56,157.38,209.16,157.43Zm-4.67,8.1a9.37,9.37,0,0,1,2.26,1.13,2.25,2.25,0,0,1,.93,1,.21.21,0,0,1-.06.22.4.4,0,0,1-.25.16c-.71,0-1.28-.36-2-.42a13.24,13.24,0,0,1-2.3-.5,2,2,0,0,1-1.66-1.47c0-.17.1-.32.36-.36A5.28,5.28,0,0,1,204.49,165.53Zm-2-51.93a.3.3,0,0,1,0,.24,1.06,1.06,0,0,1-.23.17l-.19-.21c0-.07,0-.16,0-.23S202.41,113.36,202.53,113.6Zm-9.78-4.48-.24,0,.15-.17Zm2.88,158.05v0c.23,0,.33.06.28.2a.37.37,0,0,1-.22,0,.32.32,0,0,1-.06-.17h-.07v0a1,1,0,0,1-.55,0,1.08,1.08,0,0,1-.24-.13.14.14,0,0,1,0-.17.54.54,0,0,1,.55,0,.32.32,0,0,1,.23.35Zm-.7-82,.07,0a1.59,1.59,0,0,1-.06-.37.27.27,0,0,1,.28-.32c.06,0,.16.1.19.16a.32.32,0,0,1,0,.23.7.7,0,0,1-.37.3s0,.07,0,.1l-.28.09Zm-3.28,39.44c0,.06-.16.09-.24.13s-.16-.13-.16-.2c0-.23.16-.3.34-.16A.2.2,0,0,1,191.65,224.57ZM190,131.37l.23.1-.25.08Zm2.49,133.54a.57.57,0,0,1,.12.23c0,.16-.06.3-.3.39a.58.58,0,0,1-.32,0,25.2,25.2,0,0,1-2.62-1.07,1.19,1.19,0,0,1-.57-.6c0-.07,0-.16,0-.24a.81.81,0,0,1,.8-.32A6.07,6.07,0,0,1,192.47,264.91ZM187,222.07c.06,0,.09.09.13.13l-.25.1c-.08,0-.23,0-.24-.08S186.76,222,187,222.07Zm-1.74-60.3a.81.81,0,0,1-.31-.05c-.29-.13-.28-.25,0-.35a.83.83,0,0,1,.31,0,1,1,0,0,1,.23.13C185.59,161.62,185.51,161.73,185.26,161.77Zm-2,57.19c.74.16,1.48.35,2.21.53a1.43,1.43,0,0,1,.27.15c-.08,0-.16.12-.25.13a14.94,14.94,0,0,1-1.64.17,1.56,1.56,0,0,1-1.14-.42c-.16-.16-.19-.3-.05-.41A.73.73,0,0,1,183.26,219Zm-60.65-67.71s.12.09.18.14-.17.14-.2.13C122.33,151.43,122.34,151.32,122.61,151.25Zm2.1,50.93a.94.94,0,0,1,.28.06s0,.12,0,.13a.74.74,0,0,1-.29,0C124.32,202.31,124.34,202.22,124.71,202.18Zm4,43.87L129,246l0,.18ZM135,169.58a.7.7,0,0,1,.35.22h.18s0,.08,0,.13c.17.07.19.11.07.08s0,0-.07-.08l-.14-.06-.08-.08-.42,0c-.1,0-.25,0-.27-.07S134.77,169.52,135,169.58Zm-1.12,5c-.16,0-.26-.06-.23-.26s.12-.08.19-.12.11.12.12.19S134,174.59,133.91,174.6Zm3.27-3.93,0-.12.15.08Zm1.27-1.1.19,0,0,.13Zm3-8.26c.23.05.29.17.22.34h0s0,0,0,.05c.23,0,.33.05.29.21-.07,0-.19,0-.22,0a.36.36,0,0,1-.07-.17h-.08s0,0,0,0c-.23,0-.4,0-.44-.2S141.35,161.3,141.41,161.31Zm-.21-2a.32.32,0,0,1,.22-.18.51.51,0,0,1,.57.17s0,.14-.09.18a.48.48,0,0,1-.56,0C141.26,159.49,141.18,159.4,141.2,159.34Zm6.89,80a.48.48,0,0,1-.59-.12c.07-.37-.09-.64-.62-.74a4.93,4.93,0,0,1-.7-.53c-.37-.41-.68-.86-1-1.29-.15-.19.15-.5.5-.5a.89.89,0,0,1,.62.17c.34.32.64.67,1,1s.65.45,1.41.3a.73.73,0,0,1,.62.09c.6.49,1.17,1,1.75,1.52a.21.21,0,0,1,0,.23.35.35,0,0,1-.47.19c-.42-.13-.84-.25-1.24-.4A1.64,1.64,0,0,0,148.09,239.35Zm21.26-38.28a.57.57,0,0,1,.57-.15.31.31,0,0,1,.19.45.51.51,0,0,1-.52.23,1.82,1.82,0,0,1-.28-.11C169.15,201.37,169.18,201.23,169.35,201.07Zm4-4.85c.05.15-.1.23-.26.17a.23.23,0,0,1-.15-.32h0s0,0,0,0c-.18,0-.27-.05-.25-.18s.16,0,.19,0a.25.25,0,0,1,.06.14H173l0,0C173.19,196,173.35,196.09,173.39,196.22Zm.5,16a.64.64,0,0,1,.14.22c0,.06,0,.15-.08.18a1.31,1.31,0,0,1-.95.09,4.33,4.33,0,0,1-1.74-1.12.37.37,0,0,1-.07-.23.41.41,0,0,1,.32-.39.53.53,0,0,1,.33,0A7.35,7.35,0,0,1,173.89,212.24Zm1.89-45a1,1,0,0,1,.27-.11,1.11,1.11,0,0,1,.29.07c0,.05,0,.13,0,.13a.59.59,0,0,1-.29,0A.67.67,0,0,1,175.78,167.2ZM172,260.93a.51.51,0,0,1-.45.26A.57.57,0,0,1,171,261c-.13-.19.12-.49.43-.51S172.05,260.71,172,260.93Zm-6.43-8.49s-.15.1-.22.15a.53.53,0,0,1-.52-.19s.14-.12.23-.14A.45.45,0,0,1,165.52,252.44Zm-.27-39.79a.77.77,0,0,1,.27-.07c.29,0,.35.08.17.16a.49.49,0,0,1-.27,0A.5.5,0,0,1,165.25,212.65Zm3,36.16a8,8,0,0,1,2,1.29c.06.07.16.2.13.22a1,1,0,0,1-.61.16,5,5,0,0,1-1.6-.32,1.84,1.84,0,0,1-1.21-1.12c0-.16.07-.28.33-.34A1.56,1.56,0,0,1,168.23,248.81ZM168,233l.18-.06,0,.14Zm.65-1.82c0-.06.06-.13.09-.19s.16,0,.18.07a.34.34,0,0,1,0,.22s-.11.07-.17.1S168.6,231.27,168.6,231.2ZM166.87,226s-.08-.08-.11-.12.22-.07.29,0S167.2,226,166.87,226ZM175,259a4.13,4.13,0,0,1,.81.42.87.87,0,0,1-.61,1.62c-.84-.1-1.66-.82-1.61-1.38S174.49,258.79,175,259Zm-.09-109.29a.62.62,0,0,1-.52.26.44.44,0,0,1-.3-.38c0-.26.34-.41.65-.29S175,149.52,174.9,149.71Zm-11.46,79.75c.11-.14.37-.13.58,0a2,2,0,0,1,.91.67c.12.17,0,.33-.19.42a.42.42,0,0,1-.25,0c-.24-.15-.47-.33-.68-.48S163.25,229.72,163.44,229.46Zm-10.86,7.63a2.54,2.54,0,0,1-.92-1.05.46.46,0,0,1,0-.49c.38-.52.09-1-.18-1.44-.1-.18,0-.35.21-.43a.66.66,0,0,1,.28.14,3,3,0,0,1,1.25,2.28,1.9,1.9,0,0,1-.12,1c0,.05-.13.07-.2.1A2.09,2.09,0,0,1,152.58,237.09ZM149.39,198a1.13,1.13,0,0,1-.51-.59c-.09-.23,0-.36.27-.45a1.07,1.07,0,0,1,.64-.06,3.61,3.61,0,0,1,2.09,1.23c.14.17.15.32,0,.41a.85.85,0,0,1-.31.09,3.08,3.08,0,0,1-1-.11A4.71,4.71,0,0,1,149.39,198Zm0,11.78-.11.14-.07-.15Zm3.79,33.06a.57.57,0,0,1-.29,0,2.25,2.25,0,0,1-.46-.33c-.16-.16,0-.29.48-.5.76-.31.83-.28,1,.35,0,.07,0,.14.05.21l.1,0a2.39,2.39,0,0,1,.13.21l-.22-.14a0,0,0,0,0,0,0C153.7,242.64,153.45,242.74,153.19,242.82Zm.75,2.92a.32.32,0,0,1-.18.16.34.34,0,0,1-.21-.06.24.24,0,0,1,0-.39s.17-.11.21-.09C153.92,245.44,154,245.58,153.94,245.74Zm-.31-7.45v-.16l.17.09Zm1.67,6.82a.74.74,0,0,1,.49-.29c.05,0,.13.14.16.21a.34.34,0,0,1-.21.45,1.12,1.12,0,0,1-.33,0C155.13,245.42,155.11,245.3,155.3,245.11Zm2.32-9.9.19-.07c0,.07.08.13.07.2a.77.77,0,0,1-.11.19c-.05,0-.12-.07-.14-.12A1.27,1.27,0,0,1,157.62,235.21Zm2.45-1.82c.35.11.4.33.12.54a.43.43,0,0,1-.69-.13.5.5,0,0,1,0-.43h0s0,0,0,0c-.23,0-.34-.06-.28-.2s.19,0,.22,0,.05.11.06.17h.06s0,0,0,0A1,1,0,0,1,160.07,233.39Zm.66,4.85a.29.29,0,0,1-.14.42c-.06,0-.17,0-.26,0a1,1,0,0,1-.61-.51.31.31,0,0,1,.13-.43.47.47,0,0,1,.51.11A1.65,1.65,0,0,1,160.73,238.24Zm1.74-11.56a1.11,1.11,0,0,0-.65,1.34c0,.14-.11.32-.23.46s-.5.5-.75.74h0v.1a.44.44,0,0,1,.36.27c0,.07.05.17,0,.23s-.26.14-.31-.11,0-.26,0-.39l-.1,0,.07-.06a.63.63,0,0,1-.51-.26,4,4,0,0,1-.2-.48,2.6,2.6,0,0,0-1.1-1.24c-.53-.31-1.1-.59-1.63-.9a1.36,1.36,0,0,1-.55-.62.35.35,0,0,1,.09-.47c.39-.3.82-.58,1.23-.87a.72.72,0,0,0,.3-.44,2.54,2.54,0,0,0-.14-2,2.69,2.69,0,0,1-.35-1.72c0-.07.11-.16.19-.2a.36.36,0,0,1,.27,0,1.31,1.31,0,0,1,.63.57,14.14,14.14,0,0,0,1.22,1.79,2.92,2.92,0,0,0,.86.77,12,12,0,0,1,1.2.89.68.68,0,0,1,.25.7c0,.08,0,.17-.06.25a1.2,1.2,0,0,0,.11,1.22C162.75,226.41,162.69,226.56,162.47,226.68Zm-.17-7.29s.14,0,.21-.06.11.15.1.21c-.07.25-.19.27-.31.08A.27.27,0,0,1,162.3,219.39ZM156.86,228a.52.52,0,0,1,.47.57,9.38,9.38,0,0,0-.62,2,1.81,1.81,0,0,1-.35.71c-.09.16-.23.3-.31.46a.85.85,0,0,0-.08.74,1,1,0,0,0,.72.49c.31.07.4.21.21.33a2.6,2.6,0,0,0-1,1,5.94,5.94,0,0,1-.65.89.86.86,0,0,1-.5.26l0,.08-.18,0c-.12.13-.19.15-.13,0s.07,0,.13,0l.09-.09.06,0a16.33,16.33,0,0,0-.39-2.18c-.06-.14,0-.33.1-.49a1.16,1.16,0,0,0,.09-1,4.87,4.87,0,0,1-.46-2c0-.42-.07-.84-.11-1.26a2.41,2.41,0,0,0-.1-.76,15.43,15.43,0,0,1-.72-3.51,5.37,5.37,0,0,0-.23-.75c-.3-.9-.63-1.8-.91-2.7a2.42,2.42,0,0,1,0-.76c0-.26.21-.46.58-.57a.63.63,0,0,1,.6.12l.72.54a1.17,1.17,0,0,1,.55.9,2.68,2.68,0,0,0,.1,1c.16.4.29.81.48,1.21a3.26,3.26,0,0,1,.29,1.25c0,.42.11.84.12,1.26a4.7,4.7,0,0,0,.66,2C156.21,228,156.52,228,156.86,228Zm-3.35-35.67c-.14.17-.32.19-.56.05-.46-.28-.59-.45-.63-.83s.17-.64.37-.61a1,1,0,0,1,.57.26,1.29,1.29,0,0,1,.42.66A.54.54,0,0,1,153.51,192.31Zm.21,6.6a1,1,0,0,1,1,.5c.07.15-.08.27-.31.35a1.06,1.06,0,0,1-1-.53C153.31,199.07,153.44,198.94,153.72,198.91ZM161,198a.3.3,0,0,1-.19-.17.32.32,0,0,1,.15-.41.75.75,0,0,1,.45.27c.05.06.13.15.1.19A.41.41,0,0,1,161,198Zm-11.53-3.47c0,.25-.22.49-.64.51a1.54,1.54,0,0,1-.83-.27,1,1,0,0,1-.55-.85c0-.21.3-.49.59-.52a.73.73,0,0,1,.33,0C149,193.65,149.4,194,149.44,194.56Zm-1.83,14.38V209c.19,0,.27.11.22.21s-.17,0-.2-.08a.27.27,0,0,1,0-.13l-.1,0s0,0,0-.06a4.87,4.87,0,0,1-.54,0c-.28,0-.44-.12-.41-.25s.16-.11.25-.12a.77.77,0,0,1,.33,0,.48.48,0,0,1,.37.31ZM150,243.42c.06,0,.1-.12.18-.15a.27.27,0,0,1,.38.19.23.23,0,0,1,0,.21c-.17.2-.33.19-.45,0A1.8,1.8,0,0,1,150,243.42Zm-1.13-98.88c.11.16,0,.32-.13.44a.66.66,0,0,1-.6.13,2.67,2.67,0,0,1-1.28-.78,1,1,0,0,1-.13-.23c.06-.06.11-.14.19-.16A1.71,1.71,0,0,1,148.82,144.54Zm-6,100.63c0,.07,0,.17-.07.19s-.19-.07-.17-.26c0,0,.09-.08.15-.12S142.77,245.1,142.77,245.17Zm-12.64-20.53s-.13.11-.2.17a.49.49,0,0,1-.53-.17s.12-.14.2-.16A.43.43,0,0,1,130.13,224.64Zm-1-41.32a2.9,2.9,0,0,1,.57.25c.19.12.29.28.2.4a.51.51,0,0,1-.59.13,1.28,1.28,0,0,1-.57-.24c-.17-.14-.29-.29-.21-.41A.59.59,0,0,1,129.11,183.32Zm-3-31.52,0,.19-.21-.11ZM124,232.73c.06,0,.11.09.17.14s-.15.11-.22.11-.11-.09-.17-.14S124,232.73,124,232.73ZM92,127.14l.19,0,0,.14Zm2.42,23c0-.06.14-.13.23-.16a.46.46,0,0,1,.55.19c.1.18,0,.33-.15.46a.63.63,0,0,1-.52-.26C94.43,150.29,94.35,150.21,94.37,150.14Zm.91,17.06-.18.17a.34.34,0,0,1-.21-.38.29.29,0,0,1,.19-.14C95.28,166.91,95.34,167,95.28,167.2Zm.74-6.75a.34.34,0,0,1-.21.18.79.79,0,0,1-.54-.21,1.76,1.76,0,0,1-.63-1.2.89.89,0,0,1,.48-.59,1.14,1.14,0,0,1,.66.05c.44.14.74.5.63.8A9.82,9.82,0,0,1,96,160.45Zm.08-43.66s.1.09.15.14-.16.13-.18.12C95.83,117,95.84,116.86,96.1,116.79Zm7.38,39.59c0,.06-.11.11-.17.17l-.12-.2c0-.07,0-.17.08-.19S103.53,156.18,103.48,156.38Zm7.78-53.07c-.21-.07-.38-.51-.25-.66a.64.64,0,0,1,.56-.22,1.39,1.39,0,0,1,1.25.7c.09.18,0,.32-.28.41A3.38,3.38,0,0,1,111.26,103.31ZM112.4,236l-.13.17-.09-.18Zm1.71-60.67a1.82,1.82,0,0,1-.9-1c-.06-.16.08-.33.27-.44a.49.49,0,0,1,.59,0,3.17,3.17,0,0,1,.42.39.84.84,0,0,1,.13.95c0,.06-.14.1-.21.15A2.63,2.63,0,0,1,114.11,175.33Zm2.46-2a.35.35,0,0,1-.08-.44c.11-.19.53-.27.87-.18a1.09,1.09,0,0,1,.86,1,1.65,1.65,0,0,1-.1.48c0,.07-.11.14-.16.21a2.68,2.68,0,0,1-.3-.12A4.26,4.26,0,0,1,116.57,173.31Zm.78,6.58a.76.76,0,0,1-.27.05l-.3-.09c-.2-.08-.34-.22-.31-.39s.51-.27.81-.16A.31.31,0,0,1,117.35,179.89Zm.39-66.48a2.38,2.38,0,0,1-1.53-.39c-.19-.13-.25-.27-.16-.43a1.09,1.09,0,0,1,.76-.43,2.45,2.45,0,0,1,1.4.62c.15.14.21.3.1.43A.82.82,0,0,1,117.74,113.41ZM120.16,201c.21.13.2.3,0,.4a.87.87,0,0,1-.27.14c-.1,0-.22,0-.54,0l-1.12-.13a1.3,1.3,0,0,1-.76-.45c-.17-.18-.13-.3.17-.38A3.41,3.41,0,0,1,120.16,201Zm-13.52-65.4,0,.15-.16,0Zm-4.16,18.75c.08.06.19.19.17.2a1,1,0,0,1-.62.15,2.87,2.87,0,0,1-1.53-.42.35.35,0,0,1,0-.64,2.47,2.47,0,0,1,.29-.06A3.32,3.32,0,0,1,102.48,154.39ZM90.79,78.75s0,.11,0,.11a.51.51,0,0,1-.27,0,.65.65,0,0,1-.22-.11A.52.52,0,0,1,90.79,78.75Z"/><path class="cls-1" d="M269.89,239.73a39,39,0,0,1,4.53-7.21.48.48,0,0,1-.1-.36.9.9,0,0,1,.64-.54.94.94,0,0,1,.24-.06c.73-.87,1.49-1.72,2.3-2.55s1.44-1.42,2.2-2.09,1.41-1.22,2.15-1.8a45.33,45.33,0,0,1,4.91-3.37c.6-.36,1.23-.71,1.88-1.06a49.79,49.79,0,0,0,2.62-12.07h0s0,0,0,0a59,59,0,0,0,.1-9.87c-.07-1-.17-1.93-.28-2.91s-.22-1.72-.36-2.59c-.37-2.37-.87-4.78-1.5-7.21a1.37,1.37,0,0,1-.18-.16l-.55.44c-10.69,8.44-20.08,15.86-23.48,27C269,223.92,270.31,232.58,269.89,239.73Zm20.69-43.23c.09.21-.29.5-.58.46a1,1,0,0,1-.55-.21c-.15-.13-.27-.29-.18-.4s.34-.18.57-.19A.79.79,0,0,1,290.58,196.5ZM287,191.57a1.79,1.79,0,0,1,2.09-.31.59.59,0,0,1,.06,1.08,1.6,1.6,0,0,1-.9.26,2.71,2.71,0,0,1-1-.16A.53.53,0,0,1,287,191.57ZM286.7,207a2.63,2.63,0,0,1,.59-.22,3,3,0,0,1,2.64.83c.27.28.16.65-.28.85a8.63,8.63,0,0,1-.83.3,2.87,2.87,0,0,1-.42,0,3.34,3.34,0,0,1-1.76-.67.65.65,0,0,1-.28-.44A.56.56,0,0,1,286.7,207Zm-2.1-14.79a1.13,1.13,0,0,1,.31.06c0,.06,0,.15,0,.17a.67.67,0,0,1-.31,0,1,1,0,0,1-.26-.15A1.19,1.19,0,0,1,284.6,192.17ZM280,195.49a.32.32,0,0,1,.21-.13c.21.07.28.2.19.36s-.13.09-.19.13S279.9,195.63,280,195.49Zm-8.23,29.45c0,.07-.16.11-.24.17l-.22-.19c0-.08,0-.18,0-.25s.33-.21.45,0A.26.26,0,0,1,271.72,224.94Zm1.94-6.59a1.31,1.31,0,0,1-.93.15,3.23,3.23,0,0,1-1.15-.49.93.93,0,0,1-.41-.66l.09-.48a.68.68,0,0,1,.36-.41,2.57,2.57,0,0,1,.88-.32c.9-.17,2.08.16,1.94,1.17A1.43,1.43,0,0,1,273.66,218.35Zm3.13-3.42a.52.52,0,0,1-.56.08c-.29-.11-.29-.25,0-.35a.59.59,0,0,1,.56.1C276.8,214.82,276.83,214.9,276.79,214.93Zm-7-7.12a11.85,11.85,0,0,1,.58-1.19,1.13,1.13,0,0,1,.32-.44c.6-.39,1.2-.78,1.85-1.12a9.61,9.61,0,0,1,1.25-.4,1.39,1.39,0,0,1,.67-.06c.88.16,1.77.31,2.64.5a.83.83,0,0,1,.49.33,10.49,10.49,0,0,1,.73,1.41,2.21,2.21,0,0,1,0,1.25,1.08,1.08,0,0,1-.25.47,6.09,6.09,0,0,1-1.65,1.27,1.08,1.08,0,0,1-.29.13c-.65.17-1.3.34-2,.47a7.84,7.84,0,0,1-1.24,0,3.3,3.3,0,0,1-2.89-1.67,1.9,1.9,0,0,1-.24-.47A.85.85,0,0,1,269.81,207.81Zm0,12.5a.66.66,0,0,1,.28.05c.22.09.28.23.18.41a1.62,1.62,0,0,1-.18.2.64.64,0,0,1-.54-.18c-.06-.06-.14-.14-.14-.21S269.59,220.34,269.83,220.31Z"/><path class="cls-1" d="M317.49,215.2c8.54-8.12,14.59-21.26,15.55-42.47-17.94,4.16-29.87,8-38.85,21.29a59.91,59.91,0,0,1-1.46,24.74A51.83,51.83,0,0,1,317.49,215.2Zm.51-30.82.16.09-.19.06Zm-1,21.29a.49.49,0,0,1,.52.17s-.11.13-.19.16a.48.48,0,0,1-.54-.16C316.82,205.78,316.87,205.69,317,205.67ZM305,196.33a.43.43,0,0,1,0,.19c0,.06-.07.11-.1.17s-.07-.13-.06-.19S305,196.39,305,196.33Zm-9.29,2.41a2.56,2.56,0,0,1,1.64,0,1,1,0,0,1,.26.16.7.7,0,0,1,0,.93,1.6,1.6,0,0,1-1.19.37,4.78,4.78,0,0,1-.66-.11c-.46-.13-.69-.41-.63-.78S295.44,198.84,295.74,198.74Z"/><path class="cls-1" d="M330.79,365.31a7.42,7.42,0,0,0-.68,14.8c.08-.1.55-.69.68-.69s.64.29,1.28.61a7.42,7.42,0,0,0-1.28-14.72Zm-3.08,4.16a1.31,1.31,0,0,1-.16-.79c.08-.37,1.82-.78,1.82-.78l.74.53Zm9.21,5.12a3.88,3.88,0,0,1-.7,0,9.51,9.51,0,0,1,.91-1.2C337.25,373.35,337.13,374.54,336.92,374.59Z"/></g></g></svg>